# Blender 4.4.1
# www.blender.org
mtllib anchor.mtl
o Cube
v -0.640000 0.000000 -0.000000
v 0.160000 0.400000 0.200000
v 0.160000 -0.400000 0.200000
v 0.160000 0.400000 -0.200000
v 0.160000 -0.400000 -0.200000
vn -0.4472 -0.8944 -0.0000
vn -0.2425 -0.0000 -0.9701
vn 1.0000 -0.0000 -0.0000
vn -0.2425 -0.0000 0.9701
vn -0.4472 0.8944 -0.0000
vt 0.323699 0.200741
vt 0.737361 0.526806
vt 0.224218 0.407981
vt 0.326381 0.856246
vt 0.102249 0.907327
vt 0.000086 0.459063
vt 0.737361 0.000086
vt 0.505836 0.999914
s 1
usemtl Material.001
f 3/1/1 1/2/1 5/3/1
f 5/3/2 1/2/2 4/4/2
f 4/4/3 2/5/3 3/6/3 5/3/3
f 2/7/4 1/2/4 3/1/4
f 4/4/5 1/2/5 2/8/5
