# Blender 4.4.1
# www.blender.org
mtllib skydome.mtl
o 球
v 0.000000 415.734802 277.785126
v 0.000000 277.785126 415.734802
v 0.000000 97.545158 490.392639
v 0.000000 0.000000 500.000000
v 0.000000 -97.545158 490.392639
v 0.000000 -277.785126 415.734802
v 19.030117 490.392639 95.670860
v 37.328922 461.939758 187.665146
v 54.193192 415.734802 272.447571
v 68.974846 353.553375 346.759949
v 81.105835 277.785126 407.746552
v 90.119972 191.341721 453.063690
v 95.670860 97.545158 480.969849
v 97.545158 0.000000 490.392639
v 95.670860 -97.545158 480.969849
v 90.119972 -191.341721 453.063690
v 81.105835 -277.785126 407.746552
v 68.974846 -353.553375 346.759949
v 54.193192 -415.734802 272.447571
v 37.328922 -461.939758 187.665146
v 19.030117 -490.392639 95.670860
v 37.328915 490.392639 90.119972
v 73.223305 461.939758 176.776703
v 106.303764 415.734802 256.639954
v 135.299026 353.553375 326.640717
v 159.094818 277.785126 384.088806
v 176.776672 191.341721 426.776672
v 187.665131 97.545158 453.063690
v 191.341721 0.000000 461.939728
v 187.665131 -97.545158 453.063690
v 176.776672 -191.341721 426.776672
v 159.094818 -277.785126 384.088806
v 135.299026 -353.553375 326.640717
v 106.303764 -415.734802 256.639954
v 73.223305 -461.939758 176.776703
v 37.328915 -490.392639 90.119972
v 54.193184 490.392639 81.105827
v 106.303764 461.939758 159.094818
v 154.329132 415.734802 230.969849
v 196.423737 353.553375 293.968872
v 230.969849 277.785126 345.670776
v 256.639954 191.341721 384.088837
v 272.447571 97.545158 407.746552
v 277.785126 0.000000 415.734741
v 272.447571 -97.545158 407.746552
v 256.639954 -191.341721 384.088837
v 230.969849 -277.785126 345.670776
v 196.423737 -353.553375 293.968872
v 154.329132 -415.734802 230.969849
v 106.303764 -461.939758 159.094818
v 54.193184 -490.392639 81.105827
v 68.974838 490.392639 68.974831
v 135.299026 461.939758 135.299011
v 196.423721 415.734802 196.423691
v 250.000000 353.553375 250.000000
v 293.968842 277.785126 293.968842
v 326.640686 191.341721 326.640717
v 346.759949 97.545158 346.759918
v 353.553375 0.000000 353.553284
v 346.759949 -97.545158 346.759918
v 326.640686 -191.341721 326.640717
v 293.968842 -277.785126 293.968842
v 250.000000 -353.553375 250.000000
v 196.423721 -415.734802 196.423691
v 135.299026 -461.939758 135.299011
v 68.974838 -490.392639 68.974831
v 81.105827 490.392639 54.193176
v 159.094818 461.939758 106.303749
v 230.969864 415.734802 154.329102
v 293.968872 353.553375 196.423737
v 345.670807 277.785126 230.969818
v 384.088806 191.341721 256.639984
v 407.746552 97.545158 272.447510
v 415.734772 0.000000 277.785004
v 407.746552 -97.545158 272.447510
v 384.088806 -191.341721 256.639984
v 345.670807 -277.785126 230.969818
v 293.968872 -353.553375 196.423737
v 230.969864 -415.734802 154.329102
v 159.094818 -461.939758 106.303749
v 81.105827 -490.392639 54.193176
v 0.000000 500.000000 0.000000
v 90.119957 490.392639 37.328907
v 176.776672 461.939758 73.223289
v 256.639954 415.734802 106.303726
v 326.640717 353.553375 135.299026
v 384.088806 277.785126 159.094757
v 426.776642 191.341721 176.776703
v 453.063660 97.545158 187.665070
v 461.939697 0.000000 191.341614
v 453.063660 -97.545158 187.665070
v 426.776642 -191.341721 176.776703
v 384.088806 -277.785126 159.094757
v 326.640717 -353.553375 135.299026
v 256.639954 -415.734802 106.303726
v 176.776672 -461.939758 73.223289
v 90.119957 -490.392639 37.328907
v 95.670837 490.392639 19.030107
v 187.665115 461.939758 37.328907
v 272.447540 415.734802 54.193157
v 346.759949 353.553375 68.974854
v 407.746490 277.785126 81.105782
v 453.063660 191.341721 90.119995
v 480.969818 97.545158 95.670807
v 490.392548 0.000000 97.545067
v 480.969818 -97.545158 95.670807
v 453.063660 -191.341721 90.119995
v 407.746490 -277.785126 81.105782
v 346.759949 -353.553375 68.974854
v 272.447540 -415.734802 54.193157
v 187.665115 -461.939758 37.328907
v 95.670837 -490.392639 19.030107
v 97.545135 490.392639 -0.000006
v 191.341705 461.939758 -0.000011
v 277.785065 415.734802 -0.000026
v 353.553345 353.553375 0.000007
v 415.734711 277.785126 -0.000045
v 461.939728 191.341721 0.000022
v 490.392578 97.545158 -0.000045
v 499.999847 0.000000 -0.000082
v 490.392578 -97.545158 -0.000045
v 461.939728 -191.341721 0.000022
v 415.734711 -277.785126 -0.000045
v 353.553345 -353.553375 0.000007
v 277.785065 -415.734802 -0.000026
v 191.341705 -461.939758 -0.000011
v 97.545135 -490.392639 -0.000006
v 95.670830 490.392639 -19.030117
v 187.665115 461.939758 -37.328926
v 272.447510 415.734802 -54.193203
v 346.759918 353.553375 -68.974831
v 407.746460 277.785126 -81.105865
v 453.063660 191.341721 -90.119949
v 480.969788 97.545158 -95.670883
v 490.392456 0.000000 -97.545212
v 480.969788 -97.545158 -95.670883
v 453.063660 -191.341721 -90.119949
v 407.746460 -277.785126 -81.105865
v 346.759918 -353.553375 -68.974831
v 272.447510 -415.734802 -54.193203
v 187.665115 -461.939758 -37.328926
v 95.670830 -490.392639 -19.030117
v 90.119942 490.392639 -37.328911
v 176.776672 461.939758 -73.223305
v 256.639893 415.734802 -106.303764
v 326.640686 353.553375 -135.298996
v 384.088745 277.785126 -159.094818
v 426.776642 191.341721 -176.776642
v 453.063599 97.545158 -187.665146
v 461.939545 0.000000 -191.341721
v 453.063599 -97.545158 -187.665146
v 426.776642 -191.341721 -176.776642
v 384.088745 -277.785126 -159.094818
v 326.640686 -353.553375 -135.298996
v 256.639893 -415.734802 -106.303764
v 176.776672 -461.939758 -73.223305
v 90.119942 -490.392639 -37.328911
v 81.105797 490.392639 -54.193169
v 159.094803 461.939758 -106.303757
v 230.969788 415.734802 -154.329117
v 293.968842 353.553375 -196.423706
v 345.670715 277.785126 -230.969849
v 384.088806 191.341721 -256.639923
v 407.746460 97.545158 -272.447540
v 415.734558 0.000000 -277.785095
v 407.746460 -97.545158 -272.447540
v 384.088806 -191.341721 -256.639923
v 345.670715 -277.785126 -230.969849
v 293.968842 -353.553375 -196.423706
v 230.969788 -415.734802 -154.329117
v 159.094803 -461.939758 -106.303757
v 81.105797 -490.392639 -54.193169
v 68.974808 490.392639 -68.974815
v 135.298981 461.939758 -135.299011
v 196.423630 415.734802 -196.423706
v 249.999969 353.553375 -249.999969
v 293.968781 277.785126 -293.968842
v 326.640686 191.341721 -326.640656
v 346.759857 97.545158 -346.759918
v 353.553131 0.000000 -353.553314
v 346.759857 -97.545158 -346.759918
v 326.640686 -191.341721 -326.640656
v 293.968781 -277.785126 -293.968842
v 249.999969 -353.553375 -249.999969
v 196.423630 -415.734802 -196.423706
v 135.298981 -461.939758 -135.299011
v 68.974808 -490.392639 -68.974815
v 54.193157 490.392639 -81.105797
v 106.303719 461.939758 -159.094818
v 154.329041 415.734802 -230.969833
v 196.423706 353.553375 -293.968842
v 230.969772 277.785126 -345.670746
v 256.639954 191.341721 -384.088776
v 272.447449 97.545158 -407.746490
v 277.784851 0.000000 -415.734680
v 272.447449 -97.545158 -407.746490
v 256.639954 -191.341721 -384.088776
v 230.969772 -277.785126 -345.670746
v 196.423706 -353.553375 -293.968842
v 154.329041 -415.734802 -230.969833
v 106.303719 -461.939758 -159.094818
v 54.193157 -490.392639 -81.105797
v 37.328892 490.392639 -90.119926
v 73.223267 461.939758 -176.776657
v 106.303680 415.734802 -256.639893
v 135.298996 353.553375 -326.640686
v 159.094727 277.785126 -384.088745
v 176.776672 191.341721 -426.776581
v 187.665009 97.545158 -453.063599
v 191.341476 0.000000 -461.939575
v 187.665009 -97.545158 -453.063599
v 176.776672 -191.341721 -426.776581
v 159.094727 -277.785126 -384.088745
v 135.298996 -353.553375 -326.640686
v 106.303680 -415.734802 -256.639893
v 73.223267 -461.939758 -176.776657
v 37.328892 -490.392639 -90.119926
v 19.030102 490.392639 -95.670799
v 37.328880 461.939758 -187.665085
v 54.193115 415.734802 -272.447449
v 68.974831 353.553375 -346.759918
v 81.105759 277.785126 -407.746429
v 90.119972 191.341721 -453.063599
v 95.670761 97.545158 -480.969727
v 97.544952 0.000000 -490.392395
v 95.670761 -97.545158 -480.969727
v 90.119972 -191.341721 -453.063599
v 81.105759 -277.785126 -407.746429
v 68.974831 -353.553375 -346.759918
v 54.193115 -415.734802 -272.447449
v 37.328880 -461.939758 -187.665085
v 19.030102 -490.392639 -95.670799
v -0.000004 490.392639 -97.545097
v -0.000026 461.939758 -191.341675
v -0.000048 415.734802 -277.784973
v -0.000007 353.553375 -353.553314
v -0.000052 277.785126 -415.734650
v 0.000015 191.341721 -461.939636
v -0.000067 97.545158 -490.392487
v -0.000164 0.000000 -499.999664
v -0.000067 -97.545158 -490.392487
v 0.000015 -191.341721 -461.939636
v -0.000052 -277.785126 -415.734650
v -0.000007 -353.553375 -353.553314
v -0.000048 -415.734802 -277.784973
v -0.000026 -461.939758 -191.341675
v -0.000004 -490.392639 -97.545097
v -19.030107 490.392639 -95.670792
v -37.328934 461.939758 -187.665085
v -54.193211 415.734802 -272.447418
v -68.974838 353.553375 -346.759888
v -81.105858 277.785126 -407.746399
v -90.119934 191.341721 -453.063568
v -95.670891 97.545158 -480.969696
v -97.545258 0.000000 -490.392273
v -95.670891 -97.545158 -480.969696
v -90.119934 -191.341721 -453.063568
v -81.105858 -277.785126 -407.746399
v -68.974838 -353.553375 -346.759888
v -54.193211 -415.734802 -272.447418
v -37.328934 -461.939758 -187.665085
v -19.030107 -490.392639 -95.670792
v -37.328892 490.392639 -90.119911
v -73.223305 461.939758 -176.776642
v -106.303749 415.734802 -256.639801
v -135.298996 353.553375 -326.640656
v -159.094818 277.785126 -384.088684
v -176.776611 191.341721 -426.776550
v -187.665131 97.545158 -453.063507
v -191.341736 0.000000 -461.939362
v -187.665131 -97.545158 -453.063507
v -176.776611 -191.341721 -426.776550
v -159.094818 -277.785126 -384.088684
v -135.298996 -353.553375 -326.640656
v -106.303749 -415.734802 -256.639801
v -73.223305 -461.939758 -176.776642
v -37.328892 -490.392639 -90.119911
v -54.193150 490.392639 -81.105774
v -106.303749 461.939758 -159.094772
v -154.329086 415.734802 -230.969696
v -196.423706 353.553375 -293.968842
v -230.969818 277.785126 -345.670685
v -256.639862 191.341721 -384.088745
v -272.447540 97.545158 -407.746368
v -277.785065 0.000000 -415.734375
v -272.447540 -97.545158 -407.746368
v -256.639862 -191.341721 -384.088745
v -230.969818 -277.785126 -345.670685
v -196.423706 -353.553375 -293.968842
v -154.329086 -415.734802 -230.969696
v -106.303749 -461.939758 -159.094772
v -54.193150 -490.392639 -81.105774
v -68.974792 490.392639 -68.974785
v -135.298996 461.939758 -135.298965
v -196.423645 415.734802 -196.423553
v -249.999954 353.553375 -249.999939
v -293.968811 277.785126 -293.968719
v -326.640594 191.341721 -326.640625
v -346.759888 97.545158 -346.759766
v -353.553223 0.000000 -353.552979
v -346.759888 -97.545158 -346.759766
v -326.640594 -191.341721 -326.640625
v -293.968811 -277.785126 -293.968719
v -249.999954 -353.553375 -249.999939
v -196.423645 -415.734802 -196.423553
v -135.298996 -461.939758 -135.298965
v -68.974792 -490.392639 -68.974785
v 0.000000 -500.000000 0.000000
v -81.105774 490.392639 -54.193138
v -159.094788 461.939758 -106.303703
v -230.969757 415.734802 -154.328979
v -293.968842 353.553375 -196.423676
v -345.670715 277.785126 -230.969711
v -384.088715 191.341721 -256.639893
v -407.746460 97.545158 -272.447357
v -415.734558 0.000000 -277.784698
v -407.746460 -97.545158 -272.447357
v -384.088715 -191.341721 -256.639893
v -345.670715 -277.785126 -230.969711
v -293.968842 -353.553375 -196.423676
v -230.969757 -415.734802 -154.328979
v -159.094788 -461.939758 -106.303703
v -81.105774 -490.392639 -54.193138
v -90.119904 490.392639 -37.328876
v -176.776627 461.939758 -73.223259
v -256.639801 415.734802 -106.303619
v -326.640656 353.553375 -135.298981
v -384.088684 277.785126 -159.094666
v -426.776520 191.341721 -176.776627
v -453.063568 97.545158 -187.664948
v -461.939423 0.000000 -191.341339
v -453.063568 -97.545158 -187.664948
v -426.776520 -191.341721 -176.776627
v -384.088684 -277.785126 -159.094666
v -326.640656 -353.553375 -135.298981
v -256.639801 -415.734802 -106.303619
v -176.776627 -461.939758 -73.223259
v -90.119904 -490.392639 -37.328876
v -95.670776 490.392639 -19.030090
v -187.665054 461.939758 -37.328876
v -272.447357 415.734802 -54.193077
v -346.759888 353.553375 -68.974815
v -407.746368 277.785126 -81.105713
v -453.063538 191.341721 -90.119942
v -480.969696 97.545158 -95.670692
v -490.392212 0.000000 -97.544846
v -480.969696 -97.545158 -95.670692
v -453.063538 -191.341721 -90.119942
v -407.746368 -277.785126 -81.105713
v -346.759888 -353.553375 -68.974815
v -272.447357 -415.734802 -54.193077
v -187.665054 -461.939758 -37.328876
v -95.670776 -490.392639 -19.030090
v -97.545074 490.392639 0.000009
v -191.341629 461.939758 0.000026
v -277.784882 415.734802 0.000075
v -353.553284 353.553375 0.000015
v -415.734589 277.785126 0.000082
v -461.939575 191.341721 0.000007
v -490.392426 97.545158 0.000134
v -499.999512 0.000000 0.000224
v -490.392426 -97.545158 0.000134
v -461.939575 -191.341721 0.000007
v -415.734589 -277.785126 0.000082
v -353.553284 -353.553375 0.000015
v -277.784882 -415.734802 0.000075
v -191.341629 -461.939758 0.000026
v -97.545074 -490.392639 0.000009
v -95.670769 490.392639 19.030109
v -187.665039 461.939758 37.328926
v -272.447327 415.734802 54.193218
v -346.759857 353.553375 68.974846
v -407.746307 277.785126 81.105881
v -453.063507 191.341721 90.119949
v -480.969604 97.545158 95.670944
v -490.392120 0.000000 97.545288
v -480.969604 -97.545158 95.670944
v -453.063507 -191.341721 90.119949
v -407.746307 -277.785126 81.105881
v -346.759857 -353.553375 68.974846
v -272.447327 -415.734802 54.193218
v -187.665039 -461.939758 37.328926
v -95.670769 -490.392639 19.030109
v -90.119888 490.392639 37.328892
v -176.776596 461.939758 73.223289
v -256.639709 415.734802 106.303741
v -326.640625 353.553375 135.298996
v -384.088593 277.785126 159.094818
v -426.776489 191.341721 176.776611
v -453.063416 97.545158 187.665161
v -461.939209 0.000000 191.341736
v -453.063416 -97.545158 187.665161
v -426.776489 -191.341721 176.776611
v -384.088593 -277.785126 159.094818
v -326.640625 -353.553375 135.298996
v -256.639709 -415.734802 106.303741
v -176.776596 -461.939758 73.223289
v -90.119888 -490.392639 37.328892
v -81.105751 490.392639 54.193146
v -159.094727 461.939758 106.303726
v -230.969604 415.734802 154.329071
v -293.968811 353.553375 196.423691
v -345.670593 277.785126 230.969818
v -384.088684 191.341721 256.639862
v -407.746277 97.545158 272.447540
v -415.734222 0.000000 277.785034
v -407.746277 -97.545158 272.447540
v -384.088684 -191.341721 256.639862
v -345.670593 -277.785126 230.969818
v -293.968811 -353.553375 196.423691
v -230.969604 -415.734802 154.329071
v -159.094727 -461.939758 106.303726
v -81.105751 -490.392639 54.193146
v -68.974770 490.392639 68.974785
v -135.298935 461.939758 135.298965
v -196.423477 415.734802 196.423615
v -249.999908 353.553375 249.999939
v -293.968628 277.785126 293.968781
v -326.640564 191.341721 326.640564
v -346.759674 97.545158 346.759857
v -353.552856 0.000000 353.553162
v -346.759674 -97.545158 346.759857
v -326.640564 -191.341721 326.640564
v -293.968628 -277.785126 293.968781
v -249.999908 -353.553375 249.999939
v -196.423477 -415.734802 196.423615
v -135.298935 -461.939758 135.298965
v -68.974770 -490.392639 68.974785
v -54.193123 490.392639 81.105759
v -106.303688 461.939758 159.094757
v -154.328903 415.734802 230.969711
v -196.423645 353.553375 293.968842
v -230.969635 277.785126 345.670685
v -256.639832 191.341721 384.088684
v -272.447296 97.545158 407.746399
v -277.784607 0.000000 415.734467
v -272.447296 -97.545158 407.746399
v -256.639832 -191.341721 384.088684
v -230.969635 -277.785126 345.670685
v -196.423645 -353.553375 293.968842
v -154.328903 -415.734802 230.969711
v -106.303688 -461.939758 159.094757
v -54.193123 -490.392639 81.105759
v -37.328869 490.392639 90.119881
v -73.223244 461.939758 176.776611
v -106.303551 415.734802 256.639740
v -135.298950 353.553375 326.640656
v -159.094604 277.785126 384.088623
v -176.776581 191.341721 426.776489
v -187.664902 97.545158 453.063477
v -191.341278 0.000000 461.939301
v -187.664902 -97.545158 453.063477
v -176.776581 -191.341721 426.776489
v -159.094604 -277.785126 384.088623
v -135.298950 -353.553375 326.640656
v -106.303551 -415.734802 256.639740
v -73.223244 -461.939758 176.776611
v -37.328869 -490.392639 90.119881
v -19.030088 490.392639 95.670753
v -37.328865 461.939758 187.665039
v -54.193020 415.734802 272.447266
v -68.974785 353.553375 346.759888
v -81.105667 277.785126 407.746277
v -90.119904 191.341721 453.063477
v -95.670662 97.545158 480.969604
v -97.544815 0.000000 490.392090
v -95.670662 -97.545158 480.969604
v -90.119904 -191.341721 453.063477
v -81.105667 -277.785126 407.746277
v -68.974785 -353.553375 346.759888
v -54.193020 -415.734802 272.447266
v -37.328865 -461.939758 187.665039
v -19.030088 -490.392639 95.670753
v 0.000007 490.392639 97.545052
v 0.000034 461.939758 191.341614
v 0.000045 353.553375 353.553284
v 0.000030 191.341721 461.939514
v 0.000030 -191.341721 461.939514
v 0.000045 -353.553375 353.553284
v 0.000108 -415.734802 277.784760
v 0.000034 -461.939758 191.341614
v 0.000007 -490.392639 97.545052
vn -0.0097 -0.9951 -0.0980
vn -0.0097 0.9951 -0.0980
vn -0.0975 0.0975 -0.9904
vn -0.0286 -0.9565 -0.2902
vn -0.0938 0.2890 -0.9527
vn -0.0464 -0.8810 -0.4709
vn -0.0865 0.4696 -0.8786
vn -0.0624 -0.7715 -0.6332
vn -0.0759 0.6326 -0.7708
vn -0.0759 -0.6326 -0.7708
vn -0.0624 0.7715 -0.6332
vn -0.0865 -0.4696 -0.8786
vn -0.0464 0.8810 -0.4709
vn -0.0938 -0.2890 -0.9527
vn -0.0286 0.9565 -0.2902
vn -0.0975 -0.0975 -0.9904
vn -0.2779 -0.2890 -0.9161
vn -0.0846 0.9565 -0.2790
vn -0.2889 -0.0976 -0.9524
vn -0.0286 -0.9951 -0.0942
vn -0.0286 0.9951 -0.0942
vn -0.2889 0.0976 -0.9524
vn -0.0846 -0.9565 -0.2790
vn -0.2779 0.2890 -0.9161
vn -0.1374 -0.8810 -0.4528
vn -0.2563 0.4696 -0.8448
vn -0.1847 -0.7715 -0.6088
vn -0.2248 0.6326 -0.7412
vn -0.2248 -0.6326 -0.7412
vn -0.1847 0.7715 -0.6088
vn -0.2563 -0.4696 -0.8448
vn -0.1374 0.8810 -0.4528
vn -0.4162 0.4696 -0.7786
vn -0.2999 -0.7715 -0.5611
vn -0.3651 0.6326 -0.6831
vn -0.3651 -0.6326 -0.6831
vn -0.2999 0.7715 -0.5611
vn -0.4162 -0.4696 -0.7786
vn -0.2230 0.8810 -0.4173
vn -0.4513 -0.2890 -0.8443
vn -0.1374 0.9565 -0.2571
vn -0.4691 -0.0975 -0.8777
vn -0.0464 -0.9951 -0.0869
vn -0.0464 0.9951 -0.0869
vn -0.4691 0.0975 -0.8777
vn -0.1374 -0.9565 -0.2571
vn -0.4513 0.2890 -0.8443
vn -0.2230 -0.8810 -0.4173
vn -0.1850 0.9565 -0.2254
vn -0.6314 -0.0975 -0.7693
vn -0.0625 -0.9951 -0.0761
vn -0.0625 0.9951 -0.0761
vn -0.6314 0.0975 -0.7693
vn -0.1850 -0.9565 -0.2254
vn -0.6073 0.2890 -0.7400
vn -0.3002 -0.8810 -0.3658
vn -0.5601 0.4696 -0.6825
vn -0.4036 -0.7715 -0.4918
vn -0.4913 0.6326 -0.5987
vn -0.4913 -0.6326 -0.5987
vn -0.4036 0.7715 -0.4918
vn -0.5601 -0.4696 -0.6825
vn -0.3002 0.8810 -0.3658
vn -0.6073 -0.2890 -0.7400
vn -0.5987 0.6326 -0.4913
vn -0.5987 -0.6326 -0.4913
vn -0.4918 0.7715 -0.4036
vn -0.6825 -0.4696 -0.5601
vn -0.3658 0.8810 -0.3002
vn -0.7400 -0.2890 -0.6073
vn -0.2254 0.9565 -0.1850
vn -0.7693 -0.0975 -0.6314
vn -0.0761 -0.9951 -0.0625
vn -0.0761 0.9951 -0.0625
vn -0.7693 0.0975 -0.6314
vn -0.2254 -0.9565 -0.1850
vn -0.7400 0.2890 -0.6073
vn -0.3658 -0.8810 -0.3002
vn -0.6825 0.4696 -0.5601
vn -0.4918 -0.7715 -0.4036
vn -0.0869 -0.9951 -0.0464
vn -0.0869 0.9951 -0.0464
vn -0.8777 0.0975 -0.4691
vn -0.2571 -0.9565 -0.1374
vn -0.8443 0.2890 -0.4513
vn -0.4173 -0.8810 -0.2230
vn -0.7786 0.4696 -0.4162
vn -0.5611 -0.7715 -0.2999
vn -0.6831 0.6326 -0.3651
vn -0.6831 -0.6326 -0.3651
vn -0.5611 0.7715 -0.2999
vn -0.7786 -0.4696 -0.4162
vn -0.4173 0.8810 -0.2230
vn -0.8443 -0.2890 -0.4513
vn -0.2571 0.9565 -0.1374
vn -0.8777 -0.0975 -0.4691
vn -0.7412 -0.6326 -0.2248
vn -0.6088 0.7715 -0.1847
vn -0.8448 -0.4696 -0.2563
vn -0.4528 0.8810 -0.1374
vn -0.9161 -0.2890 -0.2779
vn -0.2790 0.9565 -0.0846
vn -0.9524 -0.0975 -0.2889
vn -0.0942 -0.9951 -0.0286
vn -0.0942 0.9951 -0.0286
vn -0.9524 0.0975 -0.2889
vn -0.2790 -0.9565 -0.0846
vn -0.9161 0.2890 -0.2779
vn -0.4528 -0.8810 -0.1374
vn -0.8448 0.4696 -0.2563
vn -0.6088 -0.7715 -0.1847
vn -0.7412 0.6326 -0.2248
vn -0.9904 0.0975 -0.0975
vn -0.2902 -0.9565 -0.0286
vn -0.9527 0.2890 -0.0938
vn -0.4709 -0.8810 -0.0464
vn -0.8786 0.4696 -0.0865
vn -0.6332 -0.7715 -0.0624
vn -0.7708 0.6326 -0.0759
vn -0.7708 -0.6326 -0.0759
vn -0.6332 0.7715 -0.0624
vn -0.8786 -0.4696 -0.0865
vn -0.4709 0.8810 -0.0464
vn -0.9527 -0.2890 -0.0938
vn -0.2902 0.9565 -0.0286
vn -0.9904 -0.0975 -0.0975
vn -0.0980 -0.9951 -0.0097
vn -0.0980 0.9951 -0.0097
vn -0.6332 0.7715 0.0624
vn -0.8786 -0.4696 0.0865
vn -0.4709 0.8810 0.0464
vn -0.9527 -0.2890 0.0938
vn -0.2902 0.9565 0.0286
vn -0.9904 -0.0975 0.0976
vn -0.0980 -0.9951 0.0097
vn -0.0980 0.9951 0.0097
vn -0.9904 0.0975 0.0976
vn -0.2902 -0.9565 0.0286
vn -0.9527 0.2890 0.0938
vn -0.4709 -0.8810 0.0464
vn -0.8786 0.4696 0.0865
vn -0.6332 -0.7715 0.0624
vn -0.7708 0.6326 0.0759
vn -0.7708 -0.6326 0.0759
vn -0.2790 -0.9565 0.0846
vn -0.9161 0.2890 0.2779
vn -0.4528 -0.8810 0.1374
vn -0.8448 0.4696 0.2563
vn -0.6088 -0.7715 0.1847
vn -0.7412 0.6326 0.2248
vn -0.7412 -0.6326 0.2248
vn -0.6088 0.7715 0.1847
vn -0.8448 -0.4696 0.2563
vn -0.4528 0.8810 0.1374
vn -0.9161 -0.2890 0.2779
vn -0.2790 0.9565 0.0846
vn -0.9524 -0.0975 0.2889
vn -0.0942 -0.9951 0.0286
vn -0.0942 0.9951 0.0286
vn -0.9524 0.0975 0.2889
vn -0.7786 -0.4696 0.4162
vn -0.4173 0.8810 0.2230
vn -0.8443 -0.2890 0.4513
vn -0.2571 0.9565 0.1374
vn -0.8777 -0.0975 0.4691
vn -0.0869 -0.9951 0.0464
vn -0.0869 0.9951 0.0464
vn -0.8777 0.0975 0.4691
vn -0.2571 -0.9565 0.1374
vn -0.8443 0.2890 0.4513
vn -0.4173 -0.8810 0.2230
vn -0.7786 0.4696 0.4162
vn -0.5611 -0.7715 0.2999
vn -0.6831 0.6326 0.3651
vn -0.6831 -0.6326 0.3651
vn -0.5611 0.7715 0.2999
vn -0.7400 0.2890 0.6073
vn -0.3658 -0.8810 0.3002
vn -0.6825 0.4696 0.5601
vn -0.4918 -0.7715 0.4036
vn -0.5987 0.6326 0.4913
vn -0.5987 -0.6326 0.4913
vn -0.4918 0.7715 0.4036
vn -0.6825 -0.4696 0.5601
vn -0.3658 0.8810 0.3002
vn -0.7400 -0.2890 0.6073
vn -0.2254 0.9565 0.1850
vn -0.7693 -0.0975 0.6314
vn -0.0761 -0.9951 0.0625
vn -0.0761 0.9951 0.0625
vn -0.7693 0.0975 0.6314
vn -0.2254 -0.9565 0.1850
vn -0.3002 0.8810 0.3658
vn -0.6073 -0.2890 0.7400
vn -0.1850 0.9565 0.2254
vn -0.6314 -0.0975 0.7693
vn -0.0625 -0.9951 0.0761
vn -0.0625 0.9951 0.0761
vn -0.6314 0.0975 0.7693
vn -0.1850 -0.9565 0.2254
vn -0.6073 0.2890 0.7400
vn -0.3002 -0.8810 0.3658
vn -0.5601 0.4696 0.6825
vn -0.4036 -0.7715 0.4918
vn -0.4913 0.6326 0.5987
vn -0.4913 -0.6326 0.5987
vn -0.4036 0.7715 0.4918
vn -0.5601 -0.4696 0.6825
vn -0.4162 0.4696 0.7786
vn -0.2999 -0.7715 0.5611
vn -0.3651 0.6326 0.6831
vn -0.3651 -0.6326 0.6831
vn -0.2999 0.7715 0.5611
vn -0.4162 -0.4696 0.7786
vn -0.2230 0.8810 0.4173
vn -0.4513 -0.2890 0.8443
vn -0.1374 0.9565 0.2571
vn -0.4691 -0.0975 0.8777
vn -0.0464 -0.9951 0.0869
vn -0.0464 0.9951 0.0869
vn -0.4691 0.0975 0.8777
vn -0.1374 -0.9565 0.2571
vn -0.4513 0.2890 0.8443
vn -0.2230 -0.8810 0.4173
vn -0.0846 0.9565 0.2790
vn -0.2889 -0.0975 0.9524
vn -0.0286 -0.9951 0.0942
vn -0.0286 0.9951 0.0942
vn -0.2889 0.0975 0.9524
vn -0.0846 -0.9565 0.2790
vn -0.2779 0.2890 0.9161
vn -0.1374 -0.8810 0.4528
vn -0.2563 0.4696 0.8448
vn -0.1847 -0.7715 0.6088
vn -0.2248 0.6326 0.7412
vn -0.2248 -0.6326 0.7412
vn -0.1847 0.7715 0.6088
vn -0.2563 -0.4696 0.8448
vn -0.1374 0.8810 0.4528
vn -0.2779 -0.2890 0.9161
vn -0.0624 -0.7715 0.6332
vn -0.0759 0.6326 0.7708
vn -0.0759 -0.6326 0.7708
vn -0.0624 0.7715 0.6332
vn -0.0865 -0.4696 0.8786
vn -0.0464 0.8810 0.4709
vn -0.0938 -0.2890 0.9527
vn -0.0286 0.9565 0.2902
vn -0.0975 -0.0975 0.9904
vn -0.0097 -0.9951 0.0980
vn -0.0097 0.9951 0.0980
vn -0.0975 0.0975 0.9904
vn -0.0286 -0.9565 0.2902
vn -0.0938 0.2890 0.9527
vn -0.0464 -0.8810 0.4709
vn -0.0865 0.4696 0.8786
vn 0.0976 -0.0975 0.9904
vn 0.0097 -0.9951 0.0980
vn 0.0097 0.9951 0.0980
vn 0.0976 0.0975 0.9904
vn 0.0286 -0.9565 0.2902
vn 0.0938 0.2890 0.9527
vn 0.0464 -0.8810 0.4709
vn 0.0865 0.4696 0.8786
vn 0.0624 -0.7715 0.6332
vn 0.0759 0.6326 0.7708
vn 0.0759 -0.6326 0.7708
vn 0.0624 0.7715 0.6332
vn 0.0865 -0.4696 0.8786
vn 0.0464 0.8810 0.4709
vn 0.0938 -0.2890 0.9527
vn 0.0286 0.9565 0.2902
vn 0.2248 0.6326 0.7412
vn 0.2248 -0.6326 0.7412
vn 0.1847 0.7715 0.6088
vn 0.2563 -0.4696 0.8448
vn 0.1374 0.8810 0.4528
vn 0.2779 -0.2890 0.9161
vn 0.0846 0.9565 0.2790
vn 0.2889 -0.0975 0.9524
vn 0.0286 -0.9951 0.0942
vn 0.0286 0.9951 0.0942
vn 0.2889 0.0975 0.9524
vn 0.0846 -0.9565 0.2790
vn 0.2779 0.2890 0.9161
vn 0.1374 -0.8810 0.4528
vn 0.2563 0.4696 0.8448
vn 0.1847 -0.7715 0.6088
vn 0.0464 -0.9951 0.0869
vn 0.0464 0.9951 0.0869
vn 0.4691 0.0975 0.8777
vn 0.1374 -0.9565 0.2571
vn 0.4513 0.2890 0.8443
vn 0.2231 -0.8810 0.4173
vn 0.4162 0.4696 0.7786
vn 0.2999 -0.7715 0.5611
vn 0.3651 0.6326 0.6831
vn 0.3651 -0.6326 0.6831
vn 0.2999 0.7715 0.5611
vn 0.4162 -0.4696 0.7786
vn 0.2230 0.8810 0.4173
vn 0.4513 -0.2890 0.8443
vn 0.1374 0.9565 0.2571
vn 0.4691 -0.0975 0.8777
vn 0.4913 -0.6326 0.5987
vn 0.4036 0.7715 0.4918
vn 0.5601 -0.4696 0.6825
vn 0.3002 0.8810 0.3658
vn 0.6073 -0.2890 0.7400
vn 0.1850 0.9565 0.2254
vn 0.6314 -0.0975 0.7693
vn 0.0625 -0.9951 0.0761
vn 0.0625 0.9951 0.0761
vn 0.6314 0.0975 0.7693
vn 0.1850 -0.9565 0.2254
vn 0.6073 0.2890 0.7400
vn 0.3002 -0.8810 0.3658
vn 0.5601 0.4696 0.6825
vn 0.4036 -0.7715 0.4918
vn 0.4913 0.6326 0.5987
vn 0.7693 0.0975 0.6314
vn 0.2254 -0.9565 0.1850
vn 0.7400 0.2890 0.6073
vn 0.3658 -0.8810 0.3002
vn 0.6825 0.4696 0.5601
vn 0.4918 -0.7715 0.4036
vn 0.5987 0.6326 0.4913
vn 0.5987 -0.6326 0.4913
vn 0.4918 0.7715 0.4036
vn 0.6825 -0.4696 0.5601
vn 0.3658 0.8810 0.3002
vn 0.7400 -0.2890 0.6073
vn 0.2254 0.9565 0.1850
vn 0.7693 -0.0975 0.6314
vn 0.0761 -0.9951 0.0625
vn 0.0761 0.9951 0.0625
vn 0.5611 0.7715 0.2999
vn 0.7786 -0.4696 0.4162
vn 0.4173 0.8810 0.2230
vn 0.8443 -0.2890 0.4513
vn 0.2571 0.9565 0.1374
vn 0.8777 -0.0975 0.4691
vn 0.0869 -0.9951 0.0464
vn 0.0869 0.9951 0.0464
vn 0.8777 0.0975 0.4691
vn 0.2571 -0.9565 0.1374
vn 0.8443 0.2890 0.4513
vn 0.4173 -0.8810 0.2230
vn 0.7786 0.4696 0.4162
vn 0.5611 -0.7715 0.2999
vn 0.6831 0.6326 0.3651
vn 0.6831 -0.6326 0.3651
vn 0.9161 0.2890 0.2779
vn 0.4528 -0.8810 0.1374
vn 0.8448 0.4696 0.2563
vn 0.6088 -0.7715 0.1847
vn 0.7412 0.6326 0.2248
vn 0.7412 -0.6326 0.2248
vn 0.6088 0.7715 0.1847
vn 0.8448 -0.4696 0.2563
vn 0.4528 0.8810 0.1374
vn 0.9161 -0.2890 0.2779
vn 0.2790 0.9565 0.0846
vn 0.9524 -0.0975 0.2889
vn 0.0942 -0.9951 0.0286
vn 0.0942 0.9951 0.0286
vn 0.9524 0.0975 0.2889
vn 0.2790 -0.9565 0.0846
vn 0.4709 0.8810 0.0464
vn 0.9527 -0.2890 0.0938
vn 0.2902 0.9565 0.0286
vn 0.9904 -0.0975 0.0975
vn 0.0980 -0.9951 0.0097
vn 0.0980 0.9951 0.0097
vn 0.9904 0.0975 0.0975
vn 0.2902 -0.9565 0.0286
vn 0.9527 0.2890 0.0938
vn 0.4709 -0.8810 0.0464
vn 0.8786 0.4696 0.0865
vn 0.6332 -0.7715 0.0624
vn 0.7708 0.6326 0.0759
vn 0.7708 -0.6326 0.0759
vn 0.6332 0.7715 0.0624
vn 0.8786 -0.4696 0.0865
vn 0.4709 -0.8810 -0.0464
vn 0.8786 0.4696 -0.0865
vn 0.6332 -0.7715 -0.0624
vn 0.7708 0.6326 -0.0759
vn 0.7708 -0.6326 -0.0759
vn 0.6332 0.7715 -0.0624
vn 0.8786 -0.4696 -0.0865
vn 0.4709 0.8810 -0.0464
vn 0.9527 -0.2890 -0.0938
vn 0.2902 0.9565 -0.0286
vn 0.9904 -0.0975 -0.0976
vn 0.0980 -0.9951 -0.0097
vn 0.0980 0.9951 -0.0097
vn 0.9904 0.0975 -0.0976
vn 0.2902 -0.9565 -0.0286
vn 0.9527 0.2890 -0.0938
vn 0.9161 -0.2890 -0.2779
vn 0.2790 0.9565 -0.0846
vn 0.9524 -0.0975 -0.2889
vn 0.0942 -0.9951 -0.0286
vn 0.0942 0.9951 -0.0286
vn 0.9524 0.0975 -0.2889
vn 0.2790 -0.9565 -0.0846
vn 0.9161 0.2890 -0.2779
vn 0.4528 -0.8810 -0.1374
vn 0.8448 0.4696 -0.2563
vn 0.6088 -0.7715 -0.1847
vn 0.7412 0.6326 -0.2248
vn 0.7412 -0.6326 -0.2248
vn 0.6088 0.7715 -0.1847
vn 0.8448 -0.4696 -0.2563
vn 0.4528 0.8810 -0.1374
vn 0.7786 0.4696 -0.4162
vn 0.5611 -0.7715 -0.2999
vn 0.6831 0.6326 -0.3651
vn 0.6831 -0.6326 -0.3651
vn 0.5611 0.7715 -0.2999
vn 0.7786 -0.4696 -0.4162
vn 0.4173 0.8810 -0.2231
vn 0.8443 -0.2890 -0.4513
vn 0.2571 0.9565 -0.1374
vn 0.8777 -0.0975 -0.4691
vn 0.0869 -0.9951 -0.0464
vn 0.0869 0.9951 -0.0464
vn 0.8777 0.0975 -0.4691
vn 0.2571 -0.9565 -0.1374
vn 0.8443 0.2890 -0.4513
vn 0.4173 -0.8810 -0.2231
vn 0.2254 0.9565 -0.1850
vn 0.7693 -0.0975 -0.6314
vn 0.0761 -0.9951 -0.0625
vn 0.0761 0.9951 -0.0625
vn 0.7693 0.0975 -0.6314
vn 0.2254 -0.9565 -0.1850
vn 0.7400 0.2890 -0.6073
vn 0.3658 -0.8810 -0.3002
vn 0.6825 0.4696 -0.5601
vn 0.4918 -0.7715 -0.4036
vn 0.5987 0.6326 -0.4913
vn 0.5987 -0.6326 -0.4913
vn 0.4918 0.7715 -0.4036
vn 0.6825 -0.4696 -0.5601
vn 0.3658 0.8810 -0.3002
vn 0.7400 -0.2890 -0.6073
vn 0.4036 -0.7715 -0.4918
vn 0.4913 0.6326 -0.5987
vn 0.4913 -0.6326 -0.5987
vn 0.4036 0.7715 -0.4918
vn 0.5601 -0.4696 -0.6825
vn 0.3002 0.8810 -0.3658
vn 0.6073 -0.2890 -0.7400
vn 0.1850 0.9565 -0.2254
vn 0.6314 -0.0975 -0.7693
vn 0.0625 -0.9951 -0.0761
vn 0.0625 0.9951 -0.0761
vn 0.6314 0.0975 -0.7693
vn 0.1850 -0.9565 -0.2254
vn 0.6073 0.2890 -0.7400
vn 0.3002 -0.8810 -0.3658
vn 0.5601 0.4696 -0.6825
vn 0.4691 -0.0975 -0.8777
vn 0.0464 -0.9951 -0.0869
vn 0.0464 0.9951 -0.0869
vn 0.4691 0.0975 -0.8777
vn 0.1374 -0.9565 -0.2571
vn 0.4513 0.2890 -0.8443
vn 0.2230 -0.8810 -0.4173
vn 0.4162 0.4696 -0.7786
vn 0.2999 -0.7715 -0.5611
vn 0.3651 0.6326 -0.6831
vn 0.3651 -0.6326 -0.6831
vn 0.2999 0.7715 -0.5611
vn 0.4162 -0.4696 -0.7786
vn 0.2230 0.8810 -0.4173
vn 0.4513 -0.2890 -0.8443
vn 0.1374 0.9565 -0.2571
vn 0.2248 0.6326 -0.7412
vn 0.2248 -0.6326 -0.7412
vn 0.1847 0.7715 -0.6088
vn 0.2563 -0.4696 -0.8448
vn 0.1374 0.8810 -0.4528
vn 0.2779 -0.2890 -0.9161
vn 0.0846 0.9565 -0.2790
vn 0.2889 -0.0975 -0.9524
vn 0.0286 -0.9951 -0.0942
vn 0.0286 0.9951 -0.0942
vn 0.2889 0.0975 -0.9524
vn 0.0846 -0.9565 -0.2790
vn 0.2779 0.2890 -0.9161
vn 0.1374 -0.8810 -0.4528
vn 0.2563 0.4696 -0.8448
vn 0.1847 -0.7715 -0.6088
vn 0.0097 0.9951 -0.0980
vn 0.0976 0.0975 -0.9904
vn 0.0286 -0.9565 -0.2902
vn 0.0938 0.2890 -0.9527
vn 0.0464 -0.8810 -0.4709
vn 0.0865 0.4696 -0.8786
vn 0.0624 -0.7715 -0.6332
vn 0.0759 0.6326 -0.7708
vn 0.0759 -0.6326 -0.7708
vn 0.0624 0.7715 -0.6332
vn 0.0865 -0.4696 -0.8786
vn 0.0464 0.8810 -0.4709
vn 0.0938 -0.2890 -0.9527
vn 0.0286 0.9565 -0.2902
vn 0.0976 -0.0975 -0.9904
vn 0.0097 -0.9951 -0.0980
vt 0.750000 0.937500
vt 0.718750 0.937500
vt 0.734375 1.000000
vt 0.734375 0.000000
vt 0.718750 0.062500
vt 0.750000 0.062500
vt 0.750000 0.437500
vt 0.718750 0.437500
vt 0.718750 0.500000
vt 0.750000 0.500000
vt 0.750000 0.875000
vt 0.718750 0.875000
vt 0.750000 0.375000
vt 0.718750 0.375000
vt 0.750000 0.812500
vt 0.718750 0.812500
vt 0.750000 0.312500
vt 0.718750 0.312500
vt 0.750000 0.750000
vt 0.718750 0.750000
vt 0.750000 0.250000
vt 0.718750 0.250000
vt 0.750000 0.687500
vt 0.718750 0.687500
vt 0.750000 0.187500
vt 0.718750 0.187500
vt 0.750000 0.625000
vt 0.718750 0.625000
vt 0.750000 0.125000
vt 0.718750 0.125000
vt 0.750000 0.562500
vt 0.718750 0.562500
vt 0.687500 0.562500
vt 0.687500 0.625000
vt 0.687500 0.062500
vt 0.687500 0.125000
vt 0.687500 0.500000
vt 0.687500 0.937500
vt 0.703125 1.000000
vt 0.703125 0.000000
vt 0.687500 0.437500
vt 0.687500 0.875000
vt 0.687500 0.375000
vt 0.687500 0.812500
vt 0.687500 0.312500
vt 0.687500 0.750000
vt 0.687500 0.250000
vt 0.687500 0.687500
vt 0.687500 0.187500
vt 0.656250 0.312500
vt 0.656250 0.375000
vt 0.656250 0.750000
vt 0.656250 0.812500
vt 0.656250 0.250000
vt 0.656250 0.687500
vt 0.656250 0.187500
vt 0.656250 0.625000
vt 0.656250 0.125000
vt 0.656250 0.562500
vt 0.656250 0.062500
vt 0.656250 0.500000
vt 0.656250 0.937500
vt 0.671875 1.000000
vt 0.671875 0.000000
vt 0.656250 0.437500
vt 0.656250 0.875000
vt 0.625000 0.062500
vt 0.625000 0.125000
vt 0.625000 0.500000
vt 0.625000 0.562500
vt 0.625000 0.937500
vt 0.640625 1.000000
vt 0.640625 0.000000
vt 0.625000 0.437500
vt 0.625000 0.875000
vt 0.625000 0.375000
vt 0.625000 0.812500
vt 0.625000 0.312500
vt 0.625000 0.750000
vt 0.625000 0.250000
vt 0.625000 0.687500
vt 0.625000 0.187500
vt 0.625000 0.625000
vt 0.593750 0.250000
vt 0.593750 0.312500
vt 0.593750 0.687500
vt 0.593750 0.750000
vt 0.593750 0.187500
vt 0.593750 0.625000
vt 0.593750 0.125000
vt 0.593750 0.562500
vt 0.593750 0.062500
vt 0.593750 0.500000
vt 0.593750 0.937500
vt 0.609375 1.000000
vt 0.609375 0.000000
vt 0.593750 0.437500
vt 0.593750 0.875000
vt 0.593750 0.375000
vt 0.593750 0.812500
vt 0.562500 0.937500
vt 0.578125 1.000000
vt 0.578125 0.000000
vt 0.562500 0.062500
vt 0.562500 0.437500
vt 0.562500 0.500000
vt 0.562500 0.875000
vt 0.562500 0.375000
vt 0.562500 0.812500
vt 0.562500 0.312500
vt 0.562500 0.750000
vt 0.562500 0.250000
vt 0.562500 0.687500
vt 0.562500 0.187500
vt 0.562500 0.625000
vt 0.562500 0.125000
vt 0.562500 0.562500
vt 0.531250 0.687500
vt 0.531250 0.750000
vt 0.531250 0.187500
vt 0.531250 0.250000
vt 0.531250 0.625000
vt 0.531250 0.125000
vt 0.531250 0.562500
vt 0.531250 0.062500
vt 0.531250 0.500000
vt 0.531250 0.937500
vt 0.546875 1.000000
vt 0.546875 0.000000
vt 0.531250 0.437500
vt 0.531250 0.875000
vt 0.531250 0.375000
vt 0.531250 0.812500
vt 0.531250 0.312500
vt 0.500000 0.437500
vt 0.500000 0.500000
vt 0.500000 0.875000
vt 0.500000 0.937500
vt 0.500000 0.375000
vt 0.500000 0.812500
vt 0.500000 0.312500
vt 0.500000 0.750000
vt 0.500000 0.250000
vt 0.500000 0.687500
vt 0.500000 0.187500
vt 0.500000 0.625000
vt 0.500000 0.125000
vt 0.500000 0.562500
vt 0.500000 0.062500
vt 0.515625 1.000000
vt 0.515625 0.000000
vt 0.468750 0.187500
vt 0.468750 0.250000
vt 0.468750 0.625000
vt 0.468750 0.687500
vt 0.468750 0.125000
vt 0.468750 0.562500
vt 0.468750 0.062500
vt 0.468750 0.500000
vt 0.468750 0.937500
vt 0.484375 1.000000
vt 0.484375 0.000000
vt 0.468750 0.437500
vt 0.468750 0.875000
vt 0.468750 0.375000
vt 0.468750 0.812500
vt 0.468750 0.312500
vt 0.468750 0.750000
vt 0.437500 0.875000
vt 0.437500 0.937500
vt 0.437500 0.375000
vt 0.437500 0.437500
vt 0.437500 0.812500
vt 0.437500 0.312500
vt 0.437500 0.750000
vt 0.437500 0.250000
vt 0.437500 0.687500
vt 0.437500 0.187500
vt 0.437500 0.625000
vt 0.437500 0.125000
vt 0.437500 0.562500
vt 0.437500 0.062500
vt 0.437500 0.500000
vt 0.453125 1.000000
vt 0.453125 0.000000
vt 0.406250 0.625000
vt 0.406250 0.687500
vt 0.406250 0.125000
vt 0.406250 0.187500
vt 0.406250 0.562500
vt 0.406250 0.062500
vt 0.406250 0.500000
vt 0.406250 0.937500
vt 0.421875 1.000000
vt 0.421875 0.000000
vt 0.406250 0.437500
vt 0.406250 0.875000
vt 0.406250 0.375000
vt 0.406250 0.812500
vt 0.406250 0.312500
vt 0.406250 0.750000
vt 0.406250 0.250000
vt 0.375000 0.375000
vt 0.375000 0.437500
vt 0.375000 0.812500
vt 0.375000 0.875000
vt 0.375000 0.312500
vt 0.375000 0.750000
vt 0.375000 0.250000
vt 0.375000 0.687500
vt 0.375000 0.187500
vt 0.375000 0.625000
vt 0.375000 0.125000
vt 0.375000 0.562500
vt 0.375000 0.062500
vt 0.375000 0.500000
vt 0.375000 0.937500
vt 0.390625 1.000000
vt 0.390625 0.000000
vt 0.343750 0.125000
vt 0.343750 0.187500
vt 0.343750 0.562500
vt 0.343750 0.625000
vt 0.343750 0.062500
vt 0.343750 0.500000
vt 0.343750 0.937500
vt 0.359375 1.000000
vt 0.359375 0.000000
vt 0.343750 0.437500
vt 0.343750 0.875000
vt 0.343750 0.375000
vt 0.343750 0.812500
vt 0.343750 0.312500
vt 0.343750 0.750000
vt 0.343750 0.250000
vt 0.343750 0.687500
vt 0.312500 0.312500
vt 0.312500 0.375000
vt 0.312500 0.750000
vt 0.312500 0.812500
vt 0.312500 0.250000
vt 0.312500 0.687500
vt 0.312500 0.187500
vt 0.312500 0.625000
vt 0.312500 0.125000
vt 0.312500 0.562500
vt 0.312500 0.062500
vt 0.312500 0.500000
vt 0.312500 0.937500
vt 0.328125 1.000000
vt 0.328125 0.000000
vt 0.312500 0.437500
vt 0.312500 0.875000
vt 0.281250 0.062500
vt 0.281250 0.125000
vt 0.281250 0.500000
vt 0.281250 0.562500
vt 0.281250 0.937500
vt 0.296875 1.000000
vt 0.296875 0.000000
vt 0.281250 0.437500
vt 0.281250 0.875000
vt 0.281250 0.375000
vt 0.281250 0.812500
vt 0.281250 0.312500
vt 0.281250 0.750000
vt 0.281250 0.250000
vt 0.281250 0.687500
vt 0.281250 0.187500
vt 0.281250 0.625000
vt 0.250000 0.750000
vt 0.250000 0.812500
vt 0.250000 0.250000
vt 0.250000 0.312500
vt 0.250000 0.687500
vt 0.250000 0.187500
vt 0.250000 0.625000
vt 0.250000 0.125000
vt 0.250000 0.562500
vt 0.250000 0.062500
vt 0.250000 0.500000
vt 0.250000 0.937500
vt 0.265625 1.000000
vt 0.265625 0.000000
vt 0.250000 0.437500
vt 0.250000 0.875000
vt 0.250000 0.375000
vt 0.218750 0.500000
vt 0.218750 0.562500
vt 0.218750 0.937500
vt 0.234375 1.000000
vt 0.234375 0.000000
vt 0.218750 0.062500
vt 0.218750 0.437500
vt 0.218750 0.875000
vt 0.218750 0.375000
vt 0.218750 0.812500
vt 0.218750 0.312500
vt 0.218750 0.750000
vt 0.218750 0.250000
vt 0.218750 0.687500
vt 0.218750 0.187500
vt 0.218750 0.625000
vt 0.218750 0.125000
vt 0.187500 0.250000
vt 0.187500 0.312500
vt 0.187500 0.687500
vt 0.187500 0.750000
vt 0.187500 0.187500
vt 0.187500 0.625000
vt 0.187500 0.125000
vt 0.187500 0.562500
vt 0.187500 0.062500
vt 0.187500 0.500000
vt 0.187500 0.937500
vt 0.203125 1.000000
vt 0.203125 0.000000
vt 0.187500 0.437500
vt 0.187500 0.875000
vt 0.187500 0.375000
vt 0.187500 0.812500
vt 0.156250 0.937500
vt 0.171875 1.000000
vt 0.171875 0.000000
vt 0.156250 0.062500
vt 0.156250 0.437500
vt 0.156250 0.500000
vt 0.156250 0.875000
vt 0.156250 0.375000
vt 0.156250 0.812500
vt 0.156250 0.312500
vt 0.156250 0.750000
vt 0.156250 0.250000
vt 0.156250 0.687500
vt 0.156250 0.187500
vt 0.156250 0.625000
vt 0.156250 0.125000
vt 0.156250 0.562500
vt 0.125000 0.687500
vt 0.125000 0.750000
vt 0.125000 0.187500
vt 0.125000 0.250000
vt 0.125000 0.625000
vt 0.125000 0.125000
vt 0.125000 0.562500
vt 0.125000 0.062500
vt 0.125000 0.500000
vt 0.125000 0.937500
vt 0.140625 1.000000
vt 0.140625 0.000000
vt 0.125000 0.437500
vt 0.125000 0.875000
vt 0.125000 0.375000
vt 0.125000 0.812500
vt 0.125000 0.312500
vt 0.093750 0.437500
vt 0.093750 0.500000
vt 0.093750 0.875000
vt 0.093750 0.937500
vt 0.093750 0.375000
vt 0.093750 0.812500
vt 0.093750 0.312500
vt 0.093750 0.750000
vt 0.093750 0.250000
vt 0.093750 0.687500
vt 0.093750 0.187500
vt 0.093750 0.625000
vt 0.093750 0.125000
vt 0.093750 0.562500
vt 0.093750 0.062500
vt 0.109375 1.000000
vt 0.109375 0.000000
vt 0.062500 0.187500
vt 0.062500 0.250000
vt 0.062500 0.625000
vt 0.062500 0.687500
vt 0.062500 0.125000
vt 0.062500 0.562500
vt 0.062500 0.062500
vt 0.062500 0.500000
vt 0.062500 0.937500
vt 0.078125 1.000000
vt 0.078125 0.000000
vt 0.062500 0.437500
vt 0.062500 0.875000
vt 0.062500 0.375000
vt 0.062500 0.812500
vt 0.062500 0.312500
vt 0.062500 0.750000
vt 0.031250 0.375000
vt 0.031250 0.437500
vt 0.031250 0.812500
vt 0.031250 0.875000
vt 0.031250 0.312500
vt 0.031250 0.750000
vt 0.031250 0.250000
vt 0.031250 0.687500
vt 0.031250 0.187500
vt 0.031250 0.625000
vt 0.031250 0.125000
vt 0.031250 0.562500
vt 0.031250 0.062500
vt 0.031250 0.500000
vt 0.031250 0.937500
vt 0.046875 1.000000
vt 0.046875 0.000000
vt 0.000000 0.125000
vt 0.000000 0.187500
vt 0.000000 0.562500
vt 0.000000 0.625000
vt 0.000000 0.062500
vt 0.000000 0.500000
vt 0.000000 0.937500
vt 0.015625 1.000000
vt 0.015625 0.000000
vt 0.000000 0.437500
vt 0.000000 0.875000
vt 0.000000 0.375000
vt 0.000000 0.812500
vt 0.000000 0.312500
vt 0.000000 0.750000
vt 0.000000 0.250000
vt 0.000000 0.687500
vt 1.000000 0.812500
vt 0.968750 0.812500
vt 0.968750 0.875000
vt 1.000000 0.875000
vt 1.000000 0.312500
vt 0.968750 0.312500
vt 0.968750 0.375000
vt 1.000000 0.375000
vt 1.000000 0.750000
vt 0.968750 0.750000
vt 1.000000 0.250000
vt 0.968750 0.250000
vt 1.000000 0.687500
vt 0.968750 0.687500
vt 1.000000 0.187500
vt 0.968750 0.187500
vt 1.000000 0.625000
vt 0.968750 0.625000
vt 1.000000 0.125000
vt 0.968750 0.125000
vt 1.000000 0.562500
vt 0.968750 0.562500
vt 1.000000 0.062500
vt 0.968750 0.062500
vt 1.000000 0.500000
vt 0.968750 0.500000
vt 1.000000 0.937500
vt 0.968750 0.937500
vt 0.984375 1.000000
vt 0.984375 0.000000
vt 1.000000 0.437500
vt 0.968750 0.437500
vt 0.937500 0.562500
vt 0.937500 0.625000
vt 0.937500 0.062500
vt 0.937500 0.125000
vt 0.937500 0.500000
vt 0.937500 0.937500
vt 0.953125 1.000000
vt 0.953125 0.000000
vt 0.937500 0.437500
vt 0.937500 0.875000
vt 0.937500 0.375000
vt 0.937500 0.812500
vt 0.937500 0.312500
vt 0.937500 0.750000
vt 0.937500 0.250000
vt 0.937500 0.687500
vt 0.937500 0.187500
vt 0.906250 0.312500
vt 0.906250 0.375000
vt 0.906250 0.750000
vt 0.906250 0.812500
vt 0.906250 0.250000
vt 0.906250 0.687500
vt 0.906250 0.187500
vt 0.906250 0.625000
vt 0.906250 0.125000
vt 0.906250 0.562500
vt 0.906250 0.062500
vt 0.906250 0.500000
vt 0.906250 0.937500
vt 0.921875 1.000000
vt 0.921875 0.000000
vt 0.906250 0.437500
vt 0.906250 0.875000
vt 0.875000 0.062500
vt 0.875000 0.125000
vt 0.875000 0.500000
vt 0.875000 0.562500
vt 0.875000 0.937500
vt 0.890625 1.000000
vt 0.890625 0.000000
vt 0.875000 0.437500
vt 0.875000 0.875000
vt 0.875000 0.375000
vt 0.875000 0.812500
vt 0.875000 0.312500
vt 0.875000 0.750000
vt 0.875000 0.250000
vt 0.875000 0.687500
vt 0.875000 0.187500
vt 0.875000 0.625000
vt 0.843750 0.750000
vt 0.843750 0.812500
vt 0.843750 0.250000
vt 0.843750 0.312500
vt 0.843750 0.687500
vt 0.843750 0.187500
vt 0.843750 0.625000
vt 0.843750 0.125000
vt 0.843750 0.562500
vt 0.843750 0.062500
vt 0.843750 0.500000
vt 0.843750 0.937500
vt 0.859375 1.000000
vt 0.859375 0.000000
vt 0.843750 0.437500
vt 0.843750 0.875000
vt 0.843750 0.375000
vt 0.812500 0.500000
vt 0.812500 0.562500
vt 0.812500 0.937500
vt 0.828125 1.000000
vt 0.828125 0.000000
vt 0.812500 0.062500
vt 0.812500 0.437500
vt 0.812500 0.875000
vt 0.812500 0.375000
vt 0.812500 0.812500
vt 0.812500 0.312500
vt 0.812500 0.750000
vt 0.812500 0.250000
vt 0.812500 0.687500
vt 0.812500 0.187500
vt 0.812500 0.625000
vt 0.812500 0.125000
vt 0.781250 0.250000
vt 0.781250 0.312500
vt 0.781250 0.687500
vt 0.781250 0.750000
vt 0.781250 0.187500
vt 0.781250 0.625000
vt 0.781250 0.125000
vt 0.781250 0.562500
vt 0.781250 0.062500
vt 0.781250 0.500000
vt 0.781250 0.937500
vt 0.796875 1.000000
vt 0.796875 0.000000
vt 0.781250 0.437500
vt 0.781250 0.875000
vt 0.781250 0.375000
vt 0.781250 0.812500
vt 0.765625 0.000000
vt 0.765625 1.000000
s 0
usemtl マテリアル
f 474/1/1 82/3/1 7/2/1
f 308/4/2 482/6/2 21/5/2
f 5/7/3 4/10/3 14/9/3 15/8/3
f 475/11/4 474/1/4 7/2/4 8/12/4
f 478/13/5 5/7/5 15/8/5 16/14/5
f 1/15/6 475/11/6 8/12/6 9/16/6
f 6/17/7 478/13/7 16/14/7 17/18/7
f 476/19/8 1/15/8 9/16/8 10/20/8
f 479/21/9 6/17/9 17/18/9 18/22/9
f 2/23/10 476/19/10 10/20/10 11/24/10
f 480/25/11 479/21/11 18/22/11 19/26/11
f 477/27/12 2/23/12 11/24/12 12/28/12
f 481/29/13 480/25/13 19/26/13 20/30/13
f 3/31/14 477/27/14 12/28/14 13/32/14
f 482/6/15 481/29/15 20/30/15 21/5/15
f 4/10/16 3/31/16 13/32/16 14/9/16
f 13/32/17 12/28/17 27/34/17 28/33/17
f 21/5/18 20/30/18 35/36/18 36/35/18
f 14/9/19 13/32/19 28/33/19 29/37/19
f 7/2/20 82/39/20 22/38/20
f 308/40/21 21/5/21 36/35/21
f 15/8/22 14/9/22 29/37/22 30/41/22
f 8/12/23 7/2/23 22/38/23 23/42/23
f 16/14/24 15/8/24 30/41/24 31/43/24
f 9/16/25 8/12/25 23/42/25 24/44/25
f 17/18/26 16/14/26 31/43/26 32/45/26
f 10/20/27 9/16/27 24/44/27 25/46/27
f 18/22/28 17/18/28 32/45/28 33/47/28
f 11/24/29 10/20/29 25/46/29 26/48/29
f 19/26/30 18/22/30 33/47/30 34/49/30
f 12/28/31 11/24/31 26/48/31 27/34/31
f 20/30/32 19/26/32 34/49/32 35/36/32
f 32/45/33 31/43/33 46/51/33 47/50/33
f 25/46/34 24/44/34 39/53/34 40/52/34
f 33/47/35 32/45/35 47/50/35 48/54/35
f 26/48/36 25/46/36 40/52/36 41/55/36
f 34/49/37 33/47/37 48/54/37 49/56/37
f 27/34/38 26/48/38 41/55/38 42/57/38
f 35/36/39 34/49/39 49/56/39 50/58/39
f 28/33/40 27/34/40 42/57/40 43/59/40
f 36/35/41 35/36/41 50/58/41 51/60/41
f 29/37/42 28/33/42 43/59/42 44/61/42
f 22/38/43 82/63/43 37/62/43
f 308/64/44 36/35/44 51/60/44
f 30/41/45 29/37/45 44/61/45 45/65/45
f 23/42/46 22/38/46 37/62/46 38/66/46
f 31/43/47 30/41/47 45/65/47 46/51/47
f 24/44/48 23/42/48 38/66/48 39/53/48
f 51/60/49 50/58/49 65/68/49 66/67/49
f 44/61/50 43/59/50 58/70/50 59/69/50
f 37/62/51 82/72/51 52/71/51
f 308/73/52 51/60/52 66/67/52
f 45/65/53 44/61/53 59/69/53 60/74/53
f 38/66/54 37/62/54 52/71/54 53/75/54
f 46/51/55 45/65/55 60/74/55 61/76/55
f 39/53/56 38/66/56 53/75/56 54/77/56
f 47/50/57 46/51/57 61/76/57 62/78/57
f 40/52/58 39/53/58 54/77/58 55/79/58
f 48/54/59 47/50/59 62/78/59 63/80/59
f 41/55/60 40/52/60 55/79/60 56/81/60
f 49/56/61 48/54/61 63/80/61 64/82/61
f 42/57/62 41/55/62 56/81/62 57/83/62
f 50/58/63 49/56/63 64/82/63 65/68/63
f 43/59/64 42/57/64 57/83/64 58/70/64
f 63/80/65 62/78/65 77/85/65 78/84/65
f 56/81/66 55/79/66 70/87/66 71/86/66
f 64/82/67 63/80/67 78/84/67 79/88/67
f 57/83/68 56/81/68 71/86/68 72/89/68
f 65/68/69 64/82/69 79/88/69 80/90/69
f 58/70/70 57/83/70 72/89/70 73/91/70
f 66/67/71 65/68/71 80/90/71 81/92/71
f 59/69/72 58/70/72 73/91/72 74/93/72
f 52/71/73 82/95/73 67/94/73
f 308/96/74 66/67/74 81/92/74
f 60/74/75 59/69/75 74/93/75 75/97/75
f 53/75/76 52/71/76 67/94/76 68/98/76
f 61/76/77 60/74/77 75/97/77 76/99/77
f 54/77/78 53/75/78 68/98/78 69/100/78
f 62/78/79 61/76/79 76/99/79 77/85/79
f 55/79/80 54/77/80 69/100/80 70/87/80
f 67/94/81 82/102/81 83/101/81
f 308/103/82 81/92/82 97/104/82
f 75/97/83 74/93/83 90/106/83 91/105/83
f 68/98/84 67/94/84 83/101/84 84/107/84
f 76/99/85 75/97/85 91/105/85 92/108/85
f 69/100/86 68/98/86 84/107/86 85/109/86
f 77/85/87 76/99/87 92/108/87 93/110/87
f 70/87/88 69/100/88 85/109/88 86/111/88
f 78/84/89 77/85/89 93/110/89 94/112/89
f 71/86/90 70/87/90 86/111/90 87/113/90
f 79/88/91 78/84/91 94/112/91 95/114/91
f 72/89/92 71/86/92 87/113/92 88/115/92
f 80/90/93 79/88/93 95/114/93 96/116/93
f 73/91/94 72/89/94 88/115/94 89/117/94
f 81/92/95 80/90/95 96/116/95 97/104/95
f 74/93/96 73/91/96 89/117/96 90/106/96
f 87/113/97 86/111/97 101/119/97 102/118/97
f 95/114/98 94/112/98 109/121/98 110/120/98
f 88/115/99 87/113/99 102/118/99 103/122/99
f 96/116/100 95/114/100 110/120/100 111/123/100
f 89/117/101 88/115/101 103/122/101 104/124/101
f 97/104/102 96/116/102 111/123/102 112/125/102
f 90/106/103 89/117/103 104/124/103 105/126/103
f 83/101/104 82/128/104 98/127/104
f 308/129/105 97/104/105 112/125/105
f 91/105/106 90/106/106 105/126/106 106/130/106
f 84/107/107 83/101/107 98/127/107 99/131/107
f 92/108/108 91/105/108 106/130/108 107/132/108
f 85/109/109 84/107/109 99/131/109 100/133/109
f 93/110/110 92/108/110 107/132/110 108/134/110
f 86/111/111 85/109/111 100/133/111 101/119/111
f 94/112/112 93/110/112 108/134/112 109/121/112
f 106/130/113 105/126/113 120/136/113 121/135/113
f 99/131/114 98/127/114 113/138/114 114/137/114
f 107/132/115 106/130/115 121/135/115 122/139/115
f 100/133/116 99/131/116 114/137/116 115/140/116
f 108/134/117 107/132/117 122/139/117 123/141/117
f 101/119/118 100/133/118 115/140/118 116/142/118
f 109/121/119 108/134/119 123/141/119 124/143/119
f 102/118/120 101/119/120 116/142/120 117/144/120
f 110/120/121 109/121/121 124/143/121 125/145/121
f 103/122/122 102/118/122 117/144/122 118/146/122
f 111/123/123 110/120/123 125/145/123 126/147/123
f 104/124/124 103/122/124 118/146/124 119/148/124
f 112/125/125 111/123/125 126/147/125 127/149/125
f 105/126/126 104/124/126 119/148/126 120/136/126
f 98/127/127 82/150/127 113/138/127
f 308/151/128 112/125/128 127/149/128
f 125/145/129 124/143/129 139/153/129 140/152/129
f 118/146/130 117/144/130 132/155/130 133/154/130
f 126/147/131 125/145/131 140/152/131 141/156/131
f 119/148/132 118/146/132 133/154/132 134/157/132
f 127/149/133 126/147/133 141/156/133 142/158/133
f 120/136/134 119/148/134 134/157/134 135/159/134
f 113/138/135 82/161/135 128/160/135
f 308/162/136 127/149/136 142/158/136
f 121/135/137 120/136/137 135/159/137 136/163/137
f 114/137/138 113/138/138 128/160/138 129/164/138
f 122/139/139 121/135/139 136/163/139 137/165/139
f 115/140/140 114/137/140 129/164/140 130/166/140
f 123/141/141 122/139/141 137/165/141 138/167/141
f 116/142/142 115/140/142 130/166/142 131/168/142
f 124/143/143 123/141/143 138/167/143 139/153/143
f 117/144/144 116/142/144 131/168/144 132/155/144
f 129/164/145 128/160/145 143/170/145 144/169/145
f 137/165/146 136/163/146 151/172/146 152/171/146
f 130/166/147 129/164/147 144/169/147 145/173/147
f 138/167/148 137/165/148 152/171/148 153/174/148
f 131/168/149 130/166/149 145/173/149 146/175/149
f 139/153/150 138/167/150 153/174/150 154/176/150
f 132/155/151 131/168/151 146/175/151 147/177/151
f 140/152/152 139/153/152 154/176/152 155/178/152
f 133/154/153 132/155/153 147/177/153 148/179/153
f 141/156/154 140/152/154 155/178/154 156/180/154
f 134/157/155 133/154/155 148/179/155 149/181/155
f 142/158/156 141/156/156 156/180/156 157/182/156
f 135/159/157 134/157/157 149/181/157 150/183/157
f 128/160/158 82/184/158 143/170/158
f 308/185/159 142/158/159 157/182/159
f 136/163/160 135/159/160 150/183/160 151/172/160
f 148/179/161 147/177/161 162/187/161 163/186/161
f 156/180/162 155/178/162 170/189/162 171/188/162
f 149/181/163 148/179/163 163/186/163 164/190/163
f 157/182/164 156/180/164 171/188/164 172/191/164
f 150/183/165 149/181/165 164/190/165 165/192/165
f 143/170/166 82/194/166 158/193/166
f 308/195/167 157/182/167 172/191/167
f 151/172/168 150/183/168 165/192/168 166/196/168
f 144/169/169 143/170/169 158/193/169 159/197/169
f 152/171/170 151/172/170 166/196/170 167/198/170
f 145/173/171 144/169/171 159/197/171 160/199/171
f 153/174/172 152/171/172 167/198/172 168/200/172
f 146/175/173 145/173/173 160/199/173 161/201/173
f 154/176/174 153/174/174 168/200/174 169/202/174
f 147/177/175 146/175/175 161/201/175 162/187/175
f 155/178/176 154/176/176 169/202/176 170/189/176
f 167/198/177 166/196/177 181/204/177 182/203/177
f 160/199/178 159/197/178 174/206/178 175/205/178
f 168/200/179 167/198/179 182/203/179 183/207/179
f 161/201/180 160/199/180 175/205/180 176/208/180
f 169/202/181 168/200/181 183/207/181 184/209/181
f 162/187/182 161/201/182 176/208/182 177/210/182
f 170/189/183 169/202/183 184/209/183 185/211/183
f 163/186/184 162/187/184 177/210/184 178/212/184
f 171/188/185 170/189/185 185/211/185 186/213/185
f 164/190/186 163/186/186 178/212/186 179/214/186
f 172/191/187 171/188/187 186/213/187 187/215/187
f 165/192/188 164/190/188 179/214/188 180/216/188
f 158/193/189 82/218/189 173/217/189
f 308/219/190 172/191/190 187/215/190
f 166/196/191 165/192/191 180/216/191 181/204/191
f 159/197/192 158/193/192 173/217/192 174/206/192
f 186/213/193 185/211/193 200/221/193 201/220/193
f 179/214/194 178/212/194 193/223/194 194/222/194
f 187/215/195 186/213/195 201/220/195 202/224/195
f 180/216/196 179/214/196 194/222/196 195/225/196
f 173/217/197 82/227/197 188/226/197
f 308/228/198 187/215/198 202/224/198
f 181/204/199 180/216/199 195/225/199 196/229/199
f 174/206/200 173/217/200 188/226/200 189/230/200
f 182/203/201 181/204/201 196/229/201 197/231/201
f 175/205/202 174/206/202 189/230/202 190/232/202
f 183/207/203 182/203/203 197/231/203 198/233/203
f 176/208/204 175/205/204 190/232/204 191/234/204
f 184/209/205 183/207/205 198/233/205 199/235/205
f 177/210/206 176/208/206 191/234/206 192/236/206
f 185/211/207 184/209/207 199/235/207 200/221/207
f 178/212/208 177/210/208 192/236/208 193/223/208
f 198/233/209 197/231/209 212/238/209 213/237/209
f 191/234/210 190/232/210 205/240/210 206/239/210
f 199/235/211 198/233/211 213/237/211 214/241/211
f 192/236/212 191/234/212 206/239/212 207/242/212
f 200/221/213 199/235/213 214/241/213 215/243/213
f 193/223/214 192/236/214 207/242/214 208/244/214
f 201/220/215 200/221/215 215/243/215 216/245/215
f 194/222/216 193/223/216 208/244/216 209/246/216
f 202/224/217 201/220/217 216/245/217 217/247/217
f 195/225/218 194/222/218 209/246/218 210/248/218
f 188/226/219 82/250/219 203/249/219
f 308/251/220 202/224/220 217/247/220
f 196/229/221 195/225/221 210/248/221 211/252/221
f 189/230/222 188/226/222 203/249/222 204/253/222
f 197/231/223 196/229/223 211/252/223 212/238/223
f 190/232/224 189/230/224 204/253/224 205/240/224
f 217/247/225 216/245/225 231/255/225 232/254/225
f 210/248/226 209/246/226 224/257/226 225/256/226
f 203/249/227 82/259/227 218/258/227
f 308/260/228 217/247/228 232/254/228
f 211/252/229 210/248/229 225/256/229 226/261/229
f 204/253/230 203/249/230 218/258/230 219/262/230
f 212/238/231 211/252/231 226/261/231 227/263/231
f 205/240/232 204/253/232 219/262/232 220/264/232
f 213/237/233 212/238/233 227/263/233 228/265/233
f 206/239/234 205/240/234 220/264/234 221/266/234
f 214/241/235 213/237/235 228/265/235 229/267/235
f 207/242/236 206/239/236 221/266/236 222/268/236
f 215/243/237 214/241/237 229/267/237 230/269/237
f 208/244/238 207/242/238 222/268/238 223/270/238
f 216/245/239 215/243/239 230/269/239 231/255/239
f 209/246/240 208/244/240 223/270/240 224/257/240
f 221/266/241 220/264/241 235/272/241 236/271/241
f 229/267/242 228/265/242 243/274/242 244/273/242
f 222/268/243 221/266/243 236/271/243 237/275/243
f 230/269/244 229/267/244 244/273/244 245/276/244
f 223/270/245 222/268/245 237/275/245 238/277/245
f 231/255/246 230/269/246 245/276/246 246/278/246
f 224/257/247 223/270/247 238/277/247 239/279/247
f 232/254/248 231/255/248 246/278/248 247/280/248
f 225/256/249 224/257/249 239/279/249 240/281/249
f 218/258/250 82/283/250 233/282/250
f 308/284/251 232/254/251 247/280/251
f 226/261/252 225/256/252 240/281/252 241/285/252
f 219/262/253 218/258/253 233/282/253 234/286/253
f 227/263/254 226/261/254 241/285/254 242/287/254
f 220/264/255 219/262/255 234/286/255 235/272/255
f 228/265/256 227/263/256 242/287/256 243/274/256
f 240/281/257 239/279/257 254/289/257 255/288/257
f 233/282/258 82/291/258 248/290/258
f 308/292/259 247/280/259 262/293/259
f 241/285/260 240/281/260 255/288/260 256/294/260
f 234/286/261 233/282/261 248/290/261 249/295/261
f 242/287/262 241/285/262 256/294/262 257/296/262
f 235/272/263 234/286/263 249/295/263 250/297/263
f 243/274/264 242/287/264 257/296/264 258/298/264
f 236/271/265 235/272/265 250/297/265 251/299/265
f 244/273/266 243/274/266 258/298/266 259/300/266
f 237/275/267 236/271/267 251/299/267 252/301/267
f 245/276/268 244/273/268 259/300/268 260/302/268
f 238/277/269 237/275/269 252/301/269 253/303/269
f 246/278/270 245/276/270 260/302/270 261/304/270
f 239/279/271 238/277/271 253/303/271 254/289/271
f 247/280/272 246/278/272 261/304/272 262/293/272
f 259/300/273 258/298/273 273/306/273 274/305/273
f 252/301/274 251/299/274 266/308/274 267/307/274
f 260/302/275 259/300/275 274/305/275 275/309/275
f 253/303/276 252/301/276 267/307/276 268/310/276
f 261/304/277 260/302/277 275/309/277 276/311/277
f 254/289/278 253/303/278 268/310/278 269/312/278
f 262/293/279 261/304/279 276/311/279 277/313/279
f 255/288/280 254/289/280 269/312/280 270/314/280
f 248/290/281 82/316/281 263/315/281
f 308/317/282 262/293/282 277/313/282
f 256/294/283 255/288/283 270/314/283 271/318/283
f 249/295/284 248/290/284 263/315/284 264/319/284
f 257/296/285 256/294/285 271/318/285 272/320/285
f 250/297/286 249/295/286 264/319/286 265/321/286
f 258/298/287 257/296/287 272/320/287 273/306/287
f 251/299/288 250/297/288 265/321/288 266/308/288
f 263/315/289 82/323/289 278/322/289
f 308/324/290 277/313/290 292/325/290
f 271/318/291 270/314/291 285/327/291 286/326/291
f 264/319/292 263/315/292 278/322/292 279/328/292
f 272/320/293 271/318/293 286/326/293 287/329/293
f 265/321/294 264/319/294 279/328/294 280/330/294
f 273/306/295 272/320/295 287/329/295 288/331/295
f 266/308/296 265/321/296 280/330/296 281/332/296
f 274/305/297 273/306/297 288/331/297 289/333/297
f 267/307/298 266/308/298 281/332/298 282/334/298
f 275/309/299 274/305/299 289/333/299 290/335/299
f 268/310/300 267/307/300 282/334/300 283/336/300
f 276/311/301 275/309/301 290/335/301 291/337/301
f 269/312/302 268/310/302 283/336/302 284/338/302
f 277/313/303 276/311/303 291/337/303 292/325/303
f 270/314/304 269/312/304 284/338/304 285/327/304
f 282/334/305 281/332/305 296/340/305 297/339/305
f 290/335/306 289/333/306 304/342/306 305/341/306
f 283/336/307 282/334/307 297/339/307 298/343/307
f 291/337/308 290/335/308 305/341/308 306/344/308
f 284/338/309 283/336/309 298/343/309 299/345/309
f 292/325/310 291/337/310 306/344/310 307/346/310
f 285/327/311 284/338/311 299/345/311 300/347/311
f 278/322/312 82/349/312 293/348/312
f 308/350/313 292/325/313 307/346/313
f 286/326/314 285/327/314 300/347/314 301/351/314
f 279/328/315 278/322/315 293/348/315 294/352/315
f 287/329/316 286/326/316 301/351/316 302/353/316
f 280/330/317 279/328/317 294/352/317 295/354/317
f 288/331/318 287/329/318 302/353/318 303/355/318
f 281/332/319 280/330/319 295/354/319 296/340/319
f 289/333/320 288/331/320 303/355/320 304/342/320
f 301/351/321 300/347/321 316/357/321 317/356/321
f 294/352/322 293/348/322 309/359/322 310/358/322
f 302/353/323 301/351/323 317/356/323 318/360/323
f 295/354/324 294/352/324 310/358/324 311/361/324
f 303/355/325 302/353/325 318/360/325 319/362/325
f 296/340/326 295/354/326 311/361/326 312/363/326
f 304/342/327 303/355/327 319/362/327 320/364/327
f 297/339/328 296/340/328 312/363/328 313/365/328
f 305/341/329 304/342/329 320/364/329 321/366/329
f 298/343/330 297/339/330 313/365/330 314/367/330
f 306/344/331 305/341/331 321/366/331 322/368/331
f 299/345/332 298/343/332 314/367/332 315/369/332
f 307/346/333 306/344/333 322/368/333 323/370/333
f 300/347/334 299/345/334 315/369/334 316/357/334
f 293/348/335 82/371/335 309/359/335
f 308/372/336 307/346/336 323/370/336
f 321/366/337 320/364/337 335/374/337 336/373/337
f 314/367/338 313/365/338 328/376/338 329/375/338
f 322/368/339 321/366/339 336/373/339 337/377/339
f 315/369/340 314/367/340 329/375/340 330/378/340
f 323/370/341 322/368/341 337/377/341 338/379/341
f 316/357/342 315/369/342 330/378/342 331/380/342
f 309/359/343 82/382/343 324/381/343
f 308/383/344 323/370/344 338/379/344
f 317/356/345 316/357/345 331/380/345 332/384/345
f 310/358/346 309/359/346 324/381/346 325/385/346
f 318/360/347 317/356/347 332/384/347 333/386/347
f 311/361/348 310/358/348 325/385/348 326/387/348
f 319/362/349 318/360/349 333/386/349 334/388/349
f 312/363/350 311/361/350 326/387/350 327/389/350
f 320/364/351 319/362/351 334/388/351 335/374/351
f 313/365/352 312/363/352 327/389/352 328/376/352
f 333/386/353 332/384/353 347/391/353 348/390/353
f 326/387/354 325/385/354 340/393/354 341/392/354
f 334/388/355 333/386/355 348/390/355 349/394/355
f 327/389/356 326/387/356 341/392/356 342/395/356
f 335/374/357 334/388/357 349/394/357 350/396/357
f 328/376/358 327/389/358 342/395/358 343/397/358
f 336/373/359 335/374/359 350/396/359 351/398/359
f 329/375/360 328/376/360 343/397/360 344/399/360
f 337/377/361 336/373/361 351/398/361 352/400/361
f 330/378/362 329/375/362 344/399/362 345/401/362
f 338/379/363 337/377/363 352/400/363 353/402/363
f 331/380/364 330/378/364 345/401/364 346/403/364
f 324/381/365 82/405/365 339/404/365
f 308/406/366 338/379/366 353/402/366
f 332/384/367 331/380/367 346/403/367 347/391/367
f 325/385/368 324/381/368 339/404/368 340/393/368
f 352/400/369 351/398/369 366/408/369 367/407/369
f 345/401/370 344/399/370 359/410/370 360/409/370
f 353/402/371 352/400/371 367/407/371 368/411/371
f 346/403/372 345/401/372 360/409/372 361/412/372
f 339/404/373 82/414/373 354/413/373
f 308/415/374 353/402/374 368/411/374
f 347/391/375 346/403/375 361/412/375 362/416/375
f 340/393/376 339/404/376 354/413/376 355/417/376
f 348/390/377 347/391/377 362/416/377 363/418/377
f 341/392/378 340/393/378 355/417/378 356/419/378
f 349/394/379 348/390/379 363/418/379 364/420/379
f 342/395/380 341/392/380 356/419/380 357/421/380
f 350/396/381 349/394/381 364/420/381 365/422/381
f 343/397/382 342/395/382 357/421/382 358/423/382
f 351/398/383 350/396/383 365/422/383 366/408/383
f 344/399/384 343/397/384 358/423/384 359/410/384
f 356/424/385 355/427/385 370/426/385 371/425/385
f 364/428/386 363/431/386 378/430/386 379/429/386
f 357/432/387 356/424/387 371/425/387 372/433/387
f 365/434/388 364/428/388 379/429/388 380/435/388
f 358/436/389 357/432/389 372/433/389 373/437/389
f 366/438/390 365/434/390 380/435/390 381/439/390
f 359/440/391 358/436/391 373/437/391 374/441/391
f 367/442/392 366/438/392 381/439/392 382/443/392
f 360/444/393 359/440/393 374/441/393 375/445/393
f 368/446/394 367/442/394 382/443/394 383/447/394
f 361/448/395 360/444/395 375/445/395 376/449/395
f 354/450/396 82/452/396 369/451/396
f 308/453/397 368/446/397 383/447/397
f 362/454/398 361/448/398 376/449/398 377/455/398
f 355/427/399 354/450/399 369/451/399 370/426/399
f 363/431/400 362/454/400 377/455/400 378/430/400
f 375/445/401 374/441/401 389/457/401 390/456/401
f 383/447/402 382/443/402 397/459/402 398/458/402
f 376/449/403 375/445/403 390/456/403 391/460/403
f 369/451/404 82/462/404 384/461/404
f 308/463/405 383/447/405 398/458/405
f 377/455/406 376/449/406 391/460/406 392/464/406
f 370/426/407 369/451/407 384/461/407 385/465/407
f 378/430/408 377/455/408 392/464/408 393/466/408
f 371/425/409 370/426/409 385/465/409 386/467/409
f 379/429/410 378/430/410 393/466/410 394/468/410
f 372/433/411 371/425/411 386/467/411 387/469/411
f 380/435/412 379/429/412 394/468/412 395/470/412
f 373/437/413 372/433/413 387/469/413 388/471/413
f 381/439/414 380/435/414 395/470/414 396/472/414
f 374/441/415 373/437/415 388/471/415 389/457/415
f 382/443/416 381/439/416 396/472/416 397/459/416
f 394/468/417 393/466/417 408/474/417 409/473/417
f 387/469/418 386/467/418 401/476/418 402/475/418
f 395/470/419 394/468/419 409/473/419 410/477/419
f 388/471/420 387/469/420 402/475/420 403/478/420
f 396/472/421 395/470/421 410/477/421 411/479/421
f 389/457/422 388/471/422 403/478/422 404/480/422
f 397/459/423 396/472/423 411/479/423 412/481/423
f 390/456/424 389/457/424 404/480/424 405/482/424
f 398/458/425 397/459/425 412/481/425 413/483/425
f 391/460/426 390/456/426 405/482/426 406/484/426
f 384/461/427 82/486/427 399/485/427
f 308/487/428 398/458/428 413/483/428
f 392/464/429 391/460/429 406/484/429 407/488/429
f 385/465/430 384/461/430 399/485/430 400/489/430
f 393/466/431 392/464/431 407/488/431 408/474/431
f 386/467/432 385/465/432 400/489/432 401/476/432
f 413/483/433 412/481/433 427/491/433 428/490/433
f 406/484/434 405/482/434 420/493/434 421/492/434
f 399/485/435 82/495/435 414/494/435
f 308/496/436 413/483/436 428/490/436
f 407/488/437 406/484/437 421/492/437 422/497/437
f 400/489/438 399/485/438 414/494/438 415/498/438
f 408/474/439 407/488/439 422/497/439 423/499/439
f 401/476/440 400/489/440 415/498/440 416/500/440
f 409/473/441 408/474/441 423/499/441 424/501/441
f 402/475/442 401/476/442 416/500/442 417/502/442
f 410/477/443 409/473/443 424/501/443 425/503/443
f 403/478/444 402/475/444 417/502/444 418/504/444
f 411/479/445 410/477/445 425/503/445 426/505/445
f 404/480/446 403/478/446 418/504/446 419/506/446
f 412/481/447 411/479/447 426/505/447 427/491/447
f 405/482/448 404/480/448 419/506/448 420/493/448
f 417/502/449 416/500/449 431/508/449 432/507/449
f 425/503/450 424/501/450 439/510/450 440/509/450
f 418/504/451 417/502/451 432/507/451 433/511/451
f 426/505/452 425/503/452 440/509/452 441/512/452
f 419/506/453 418/504/453 433/511/453 434/513/453
f 427/491/454 426/505/454 441/512/454 442/514/454
f 420/493/455 419/506/455 434/513/455 435/515/455
f 428/490/456 427/491/456 442/514/456 443/516/456
f 421/492/457 420/493/457 435/515/457 436/517/457
f 414/494/458 82/519/458 429/518/458
f 308/520/459 428/490/459 443/516/459
f 422/497/460 421/492/460 436/517/460 437/521/460
f 415/498/461 414/494/461 429/518/461 430/522/461
f 423/499/462 422/497/462 437/521/462 438/523/462
f 416/500/463 415/498/463 430/522/463 431/508/463
f 424/501/464 423/499/464 438/523/464 439/510/464
f 436/517/465 435/515/465 450/525/465 451/524/465
f 429/518/466 82/527/466 444/526/466
f 308/528/467 443/516/467 458/529/467
f 437/521/468 436/517/468 451/524/468 452/530/468
f 430/522/469 429/518/469 444/526/469 445/531/469
f 438/523/470 437/521/470 452/530/470 453/532/470
f 431/508/471 430/522/471 445/531/471 446/533/471
f 439/510/472 438/523/472 453/532/472 454/534/472
f 432/507/473 431/508/473 446/533/473 447/535/473
f 440/509/474 439/510/474 454/534/474 455/536/474
f 433/511/475 432/507/475 447/535/475 448/537/475
f 441/512/476 440/509/476 455/536/476 456/538/476
f 434/513/477 433/511/477 448/537/477 449/539/477
f 442/514/478 441/512/478 456/538/478 457/540/478
f 435/515/479 434/513/479 449/539/479 450/525/479
f 443/516/480 442/514/480 457/540/480 458/529/480
f 455/536/481 454/534/481 469/542/481 470/541/481
f 448/537/482 447/535/482 462/544/482 463/543/482
f 456/538/483 455/536/483 470/541/483 471/545/483
f 449/539/484 448/537/484 463/543/484 464/546/484
f 457/540/485 456/538/485 471/545/485 472/547/485
f 450/525/486 449/539/486 464/546/486 465/548/486
f 458/529/487 457/540/487 472/547/487 473/549/487
f 451/524/488 450/525/488 465/548/488 466/550/488
f 444/526/489 82/552/489 459/551/489
f 308/553/490 458/529/490 473/549/490
f 452/530/491 451/524/491 466/550/491 467/554/491
f 445/531/492 444/526/492 459/551/492 460/555/492
f 453/532/493 452/530/493 467/554/493 468/556/493
f 446/533/494 445/531/494 460/555/494 461/557/494
f 454/534/495 453/532/495 468/556/495 469/542/495
f 447/535/496 446/533/496 461/557/496 462/544/496
f 308/558/497 473/549/497 482/6/497
f 467/554/498 466/550/498 4/10/498 5/7/498
f 460/555/499 459/551/499 474/1/499 475/11/499
f 468/556/500 467/554/500 5/7/500 478/13/500
f 461/557/501 460/555/501 475/11/501 1/15/501
f 469/542/502 468/556/502 478/13/502 6/17/502
f 462/544/503 461/557/503 1/15/503 476/19/503
f 470/541/504 469/542/504 6/17/504 479/21/504
f 463/543/505 462/544/505 476/19/505 2/23/505
f 471/545/506 470/541/506 479/21/506 480/25/506
f 464/546/507 463/543/507 2/23/507 477/27/507
f 472/547/508 471/545/508 480/25/508 481/29/508
f 465/548/509 464/546/509 477/27/509 3/31/509
f 473/549/510 472/547/510 481/29/510 482/6/510
f 466/550/511 465/548/511 3/31/511 4/10/511
f 459/551/512 82/559/512 474/1/512
