# Blender 4.4.1
# www.blender.org
mtllib player.mtl
o 立方体
v 0.450000 -0.500000 0.481620
v 0.450000 0.500000 0.500000
v -0.450000 -0.500000 0.481620
v -0.450000 0.500000 0.500000
v 0.450000 -0.500000 -0.500000
v 0.450000 0.500000 -0.500000
v -0.450000 -0.500000 -0.500000
v -0.450000 0.500000 -0.500000
v -0.266985 -0.667404 0.572933
v 0.000000 -0.704039 0.609568
v 0.266985 -0.667404 0.572933
v 0.515640 -0.296650 0.572933
v 0.548611 -0.000000 0.572084
v 0.515640 0.296650 0.572933
v 0.266985 0.572933 0.572933
v 0.000000 0.609568 0.609568
v -0.266985 0.572933 0.572933
v -0.515639 0.296650 0.572933
v -0.548611 -0.000000 0.572084
v -0.515639 -0.296650 0.572933
v -0.515639 -0.572933 -0.296650
v -0.548611 -0.609568 0.000000
v -0.515640 -0.572933 0.296650
v -0.515639 0.572933 0.296650
v -0.548611 0.609568 0.000000
v -0.515640 0.572933 -0.296650
v -0.515640 0.296650 -0.572933
v -0.548611 -0.000000 -0.609568
v -0.515640 -0.296650 -0.572933
v 0.266985 -0.572933 -0.572933
v -0.000000 -0.609568 -0.609568
v -0.266985 -0.572933 -0.572933
v -0.266985 0.572933 -0.572933
v -0.000000 0.609568 -0.609568
v 0.266985 0.572933 -0.572933
v 0.515639 0.296650 -0.572933
v 0.548611 -0.000000 -0.609568
v 0.515639 -0.296650 -0.572933
v 0.515639 -0.572933 0.296650
v 0.548611 -0.609568 -0.000000
v 0.515640 -0.572933 -0.296650
v 0.515639 0.572933 -0.296650
v 0.548611 0.609568 -0.000000
v 0.515640 0.572933 0.296650
v 0.284541 -0.410628 0.728990
v 0.301290 -0.060178 0.742206
v 0.284541 0.316157 0.710610
v 0.000000 -0.427612 0.742757
v 0.009298 -0.072441 0.910458
v 0.000000 0.333140 0.728423
v -0.284541 -0.410628 0.728990
v -0.301290 -0.060178 0.742206
v -0.284541 0.316157 0.710610
v -0.656091 -0.316157 0.316157
v -0.703646 -0.000000 0.333141
v -0.656091 0.316157 0.316157
v -0.703646 -0.333140 0.000000
v -0.755556 0.000000 0.000000
v -0.703646 0.333140 0.000000
v -0.656091 -0.316157 -0.316157
v -0.703646 0.000000 -0.333140
v -0.656091 0.316157 -0.316157
v -0.284541 -0.316157 -0.728990
v -0.299827 -0.000000 -0.781829
v -0.284541 0.316157 -0.728990
v -0.000000 -0.333140 -0.781829
v -0.000000 0.000000 -0.839506
v -0.000000 0.333140 -0.781829
v 0.284541 -0.316157 -0.728990
v 0.299826 0.000000 -0.781829
v 0.284541 0.316157 -0.728990
v 0.656091 -0.316157 -0.316157
v 0.703646 -0.000000 -0.333141
v 0.656091 0.316157 -0.316157
v 0.703646 -0.333140 -0.000000
v 0.755556 0.000000 -0.000000
v 0.703646 0.333140 -0.000000
v 0.656091 -0.316157 0.316157
v 0.703646 0.000000 0.333140
v 0.656091 0.316157 0.316157
v -0.284541 -0.728990 0.316157
v -0.299826 -0.781829 0.000000
v -0.284541 -0.728990 -0.316157
v 0.000000 -0.781829 0.333140
v 0.000000 -0.839506 -0.000000
v -0.000000 -0.781829 -0.333140
v 0.284541 -0.728990 0.316157
v 0.299826 -0.781829 -0.000000
v 0.284541 -0.728990 -0.316157
v -0.284541 0.728990 -0.316157
v -0.299826 0.781829 0.000000
v -0.284541 0.728990 0.316157
v -0.000000 0.781829 -0.333140
v 0.000000 0.839506 0.000000
v 0.000000 0.781829 0.333140
v 0.284541 0.728990 -0.316157
v 0.299826 0.781829 -0.000000
v 0.284541 0.728990 0.316157
vn 0.3031 -0.2472 0.9203
vn 0.2984 0.2608 0.9181
vn -0.2947 -0.2403 0.9249
vn -0.2904 0.2548 0.9224
vn 0.6623 -0.4442 0.6034
vn 0.5771 -0.0599 0.8145
vn 0.5347 0.0779 0.8414
vn 0.4834 0.4351 0.7596
vn 0.1302 0.4333 0.8918
vn -0.1302 0.4333 0.8918
vn -0.4834 0.4351 0.7596
vn -0.5347 0.0779 0.8414
vn -0.5771 -0.0599 0.8145
vn -0.6623 -0.4442 0.6034
vn -0.1258 -0.4762 0.8703
vn 0.1258 -0.4762 0.8703
vn -0.9761 -0.1535 0.1535
vn -0.9761 0.1535 0.1535
vn -0.9761 -0.1535 -0.1535
vn -0.9761 0.1535 -0.1535
vn -0.7678 -0.4530 0.4530
vn -0.8500 -0.1252 0.5116
vn -0.8500 0.1252 0.5116
vn -0.7837 0.4392 0.4392
vn -0.8616 0.4832 0.1555
vn -0.8616 0.4832 -0.1555
vn -0.7837 0.4392 -0.4392
vn -0.8616 0.1555 -0.4832
vn -0.8616 -0.1555 -0.4832
vn -0.7837 -0.4392 -0.4392
vn -0.8616 -0.4832 -0.1555
vn -0.8616 -0.4832 0.1555
vn -0.1879 -0.1691 -0.9675
vn -0.1879 0.1691 -0.9675
vn 0.1879 -0.1691 -0.9675
vn 0.1879 0.1691 -0.9675
vn -0.5065 -0.4558 -0.7319
vn -0.5616 -0.1627 -0.8112
vn -0.5616 0.1627 -0.8112
vn -0.5065 0.4558 -0.7319
vn -0.1858 0.5196 -0.8339
vn 0.1858 0.5196 -0.8339
vn 0.5065 0.4558 -0.7319
vn 0.5616 0.1627 -0.8112
vn 0.5616 -0.1627 -0.8112
vn 0.5065 -0.4558 -0.7319
vn 0.1858 -0.5196 -0.8339
vn -0.1858 -0.5196 -0.8339
vn 0.9761 -0.1535 -0.1535
vn 0.9761 0.1535 -0.1535
vn 0.9761 -0.1535 0.1535
vn 0.9761 0.1535 0.1535
vn 0.7837 -0.4392 -0.4392
vn 0.8616 -0.1555 -0.4832
vn 0.8616 0.1555 -0.4832
vn 0.7837 0.4392 -0.4392
vn 0.8616 0.4832 -0.1555
vn 0.8616 0.4832 0.1555
vn 0.7837 0.4392 0.4392
vn 0.8500 0.1252 0.5116
vn 0.8500 -0.1252 0.5116
vn 0.7678 -0.4530 0.4530
vn 0.8616 -0.4832 0.1555
vn 0.8616 -0.4832 -0.1555
vn -0.1879 -0.9675 0.1691
vn -0.1879 -0.9675 -0.1691
vn 0.1879 -0.9675 0.1691
vn 0.1879 -0.9675 -0.1691
vn -0.6342 -0.6982 0.3321
vn -0.5616 -0.8112 0.1627
vn -0.5616 -0.8112 -0.1627
vn -0.5065 -0.7319 -0.4558
vn -0.1858 -0.8339 -0.5196
vn 0.1858 -0.8339 -0.5196
vn 0.5065 -0.7319 -0.4558
vn 0.5616 -0.8112 -0.1627
vn 0.5616 -0.8112 0.1627
vn 0.6342 -0.6982 0.3321
vn 0.1789 -0.9504 0.2543
vn -0.1789 -0.9504 0.2543
vn -0.1879 0.9675 -0.1691
vn -0.1879 0.9675 0.1691
vn 0.1879 0.9675 -0.1691
vn 0.1879 0.9675 0.1691
vn -0.5065 0.7319 -0.4558
vn -0.5616 0.8112 -0.1627
vn -0.5616 0.8112 0.1627
vn -0.5065 0.7319 0.4558
vn -0.1858 0.8339 0.5196
vn 0.1858 0.8339 0.5196
vn 0.5065 0.7319 0.4558
vn 0.5616 0.8112 0.1627
vn 0.5616 0.8112 -0.1627
vn 0.5065 0.7319 -0.4558
vn 0.1858 0.8339 -0.5196
vn -0.1858 0.8339 -0.5196
vt 0.072266 0.148630
vt 0.141898 0.106784
vt 0.165997 0.170703
vt 0.097075 0.210407
vt 0.222620 0.076067
vt 0.251471 0.135513
vt 0.198106 0.231899
vt 0.130602 0.263566
vt 0.271789 0.196882
vt 0.005988 0.109081
vt 0.058103 0.075179
vt 0.004412 0.179737
vt 0.125008 0.033373
vt 0.199149 0.015155
vt 0.256130 0.004412
vt 0.287808 0.048177
vt 0.318943 0.109037
vt 0.337726 0.174999
vt 0.342366 0.229449
vt 0.292394 0.251666
vt 0.237488 0.283266
vt 0.178611 0.306860
vt 0.070358 0.302454
vt 0.131053 0.337339
vt 0.031500 0.245032
vt 0.202813 0.365934
vt 0.263452 0.336360
vt 0.293641 0.398084
vt 0.229933 0.429816
vt 0.324044 0.306725
vt 0.357785 0.367254
vt 0.323573 0.459219
vt 0.264809 0.488874
vt 0.383026 0.430989
vt 0.137529 0.391685
vt 0.384233 0.270993
vt 0.424318 0.335896
vt 0.448921 0.408160
vt 0.453462 0.467487
vt 0.403518 0.488833
vt 0.350491 0.514179
vt 0.297946 0.540548
vt 0.206358 0.526946
vt 0.250451 0.566907
vt 0.164315 0.463204
vt 0.322793 0.589138
vt 0.374372 0.562920
vt 0.397894 0.610860
vt 0.344774 0.636895
vt 0.426646 0.538217
vt 0.450915 0.584750
vt 0.421497 0.658842
vt 0.369030 0.683602
vt 0.473080 0.632384
vt 0.269161 0.614014
vt 0.479026 0.511193
vt 0.503566 0.558757
vt 0.526421 0.607169
vt 0.545612 0.654020
vt 0.498368 0.680969
vt 0.445608 0.707792
vt 0.392179 0.733286
vt 0.316389 0.710638
vt 0.342036 0.754350
vt 0.291832 0.662780
vt 0.412428 0.791898
vt 0.473064 0.763515
vt 0.504243 0.826786
vt 0.437031 0.857596
vt 0.532513 0.732723
vt 0.569626 0.792259
vt 0.536759 0.892781
vt 0.469808 0.922904
vt 0.601455 0.858054
vt 0.345738 0.813660
vt 0.590398 0.693087
vt 0.634691 0.755335
vt 0.665515 0.825344
vt 0.679228 0.882002
vt 0.635779 0.920773
vt 0.567631 0.955458
vt 0.498595 0.988343
vt 0.404866 0.953780
vt 0.439081 0.995588
vt 0.368123 0.886700
vt 0.077192 0.690938
vt 0.144865 0.660503
vt 0.171764 0.721454
vt 0.104054 0.754541
vt 0.209873 0.636193
vt 0.234904 0.690601
vt 0.203321 0.780129
vt 0.137726 0.814816
vt 0.262448 0.743781
vt 0.004412 0.654174
vt 0.050321 0.626832
vt 0.018425 0.720309
vt 0.119323 0.594420
vt 0.191675 0.572622
vt 0.301413 0.797202
vt 0.239759 0.840885
vt 0.171789 0.875406
vt 0.078444 0.843130
vt 0.122008 0.894824
vt 0.041176 0.785267
vt 0.532631 0.478445
vt 0.590989 0.443350
vt 0.621163 0.500672
vt 0.559778 0.530994
vt 0.654517 0.412355
vt 0.685640 0.468822
vt 0.648349 0.559469
vt 0.585012 0.584490
vt 0.711569 0.527854
vt 0.494419 0.424900
vt 0.556895 0.382563
vt 0.625816 0.350985
vt 0.682243 0.334969
vt 0.718037 0.376195
vt 0.753974 0.435067
vt 0.778888 0.499383
vt 0.789876 0.552863
vt 0.742865 0.587942
vt 0.675905 0.623485
vt 0.604317 0.647373
s 0
usemtl マテリアル
f 45/1/1 46/2/1 49/3/1 48/4/1
f 46/2/2 47/5/2 50/6/2 49/3/2
f 48/4/3 49/3/3 52/7/3 51/8/3
f 49/3/4 50/6/4 53/9/4 52/7/4
f 1/10/5 12/11/5 45/1/5 11/12/5
f 12/11/6 13/13/6 46/2/6 45/1/6
f 13/13/7 14/14/7 47/5/7 46/2/7
f 14/14/8 2/15/8 15/16/8 47/5/8
f 47/5/9 15/16/9 16/17/9 50/6/9
f 50/6/10 16/17/10 17/18/10 53/9/10
f 53/9/11 17/18/11 4/19/11 18/20/11
f 52/7/12 53/9/12 18/20/12 19/21/12
f 51/8/13 52/7/13 19/21/13 20/22/13
f 9/23/14 51/8/14 20/22/14 3/24/14
f 10/25/15 48/4/15 51/8/15 9/23/15
f 11/12/16 45/1/16 48/4/16 10/25/16
f 54/26/17 55/27/17 58/28/17 57/29/17
f 55/27/18 56/30/18 59/31/18 58/28/18
f 57/29/19 58/28/19 61/32/19 60/33/19
f 58/28/20 59/31/20 62/34/20 61/32/20
f 3/24/21 20/22/21 54/26/21 23/35/21
f 20/22/22 19/21/22 55/27/22 54/26/22
f 19/21/23 18/20/23 56/30/23 55/27/23
f 18/20/24 4/19/24 24/36/24 56/30/24
f 56/30/25 24/36/25 25/37/25 59/31/25
f 59/31/26 25/37/26 26/38/26 62/34/26
f 62/34/27 26/38/27 8/39/27 27/40/27
f 61/32/28 62/34/28 27/40/28 28/41/28
f 60/33/29 61/32/29 28/41/29 29/42/29
f 21/43/30 60/33/30 29/42/30 7/44/30
f 22/45/31 57/29/31 60/33/31 21/43/31
f 23/35/32 54/26/32 57/29/32 22/45/32
f 63/46/33 64/47/33 67/48/33 66/49/33
f 64/47/34 65/50/34 68/51/34 67/48/34
f 66/49/35 67/48/35 70/52/35 69/53/35
f 67/48/36 68/51/36 71/54/36 70/52/36
f 7/44/37 29/42/37 63/46/37 32/55/37
f 29/42/38 28/41/38 64/47/38 63/46/38
f 28/41/39 27/40/39 65/50/39 64/47/39
f 27/40/40 8/39/40 33/56/40 65/50/40
f 65/50/41 33/56/41 34/57/41 68/51/41
f 68/51/42 34/57/42 35/58/42 71/54/42
f 71/54/43 35/58/43 6/59/43 36/60/43
f 70/52/44 71/54/44 36/60/44 37/61/44
f 69/53/45 70/52/45 37/61/45 38/62/45
f 30/63/46 69/53/46 38/62/46 5/64/46
f 31/65/47 66/49/47 69/53/47 30/63/47
f 32/55/48 63/46/48 66/49/48 31/65/48
f 72/66/49 73/67/49 76/68/49 75/69/49
f 73/67/50 74/70/50 77/71/50 76/68/50
f 75/69/51 76/68/51 79/72/51 78/73/51
f 76/68/52 77/71/52 80/74/52 79/72/52
f 5/64/53 38/62/53 72/66/53 41/75/53
f 38/62/54 37/61/54 73/67/54 72/66/54
f 37/61/55 36/60/55 74/70/55 73/67/55
f 36/60/56 6/59/56 42/76/56 74/70/56
f 74/70/57 42/76/57 43/77/57 77/71/57
f 77/71/58 43/77/58 44/78/58 80/74/58
f 80/74/59 44/78/59 2/79/59 14/80/59
f 79/72/60 80/74/60 14/80/60 13/81/60
f 78/73/61 79/72/61 13/81/61 12/82/61
f 39/83/62 78/73/62 12/82/62 1/84/62
f 40/85/63 75/69/63 78/73/63 39/83/63
f 41/75/64 72/66/64 75/69/64 40/85/64
f 81/86/65 82/87/65 85/88/65 84/89/65
f 82/87/66 83/90/66 86/91/66 85/88/66
f 84/89/67 85/88/67 88/92/67 87/93/67
f 85/88/68 86/91/68 89/94/68 88/92/68
f 3/95/69 23/96/69 81/86/69 9/97/69
f 23/96/70 22/98/70 82/87/70 81/86/70
f 22/98/71 21/99/71 83/90/71 82/87/71
f 21/99/72 7/44/72 32/55/72 83/90/72
f 83/90/73 32/55/73 31/65/73 86/91/73
f 86/91/74 31/65/74 30/63/74 89/94/74
f 89/94/75 30/63/75 5/64/75 41/100/75
f 88/92/76 89/94/76 41/100/76 40/101/76
f 87/93/77 88/92/77 40/101/77 39/102/77
f 11/103/78 87/93/78 39/102/78 1/104/78
f 10/105/79 84/89/79 87/93/79 11/103/79
f 9/97/80 81/86/80 84/89/80 10/105/80
f 90/106/81 91/107/81 94/108/81 93/109/81
f 91/107/82 92/110/82 95/111/82 94/108/82
f 93/109/83 94/108/83 97/112/83 96/113/83
f 94/108/84 95/111/84 98/114/84 97/112/84
f 8/39/85 26/115/85 90/106/85 33/56/85
f 26/115/86 25/116/86 91/107/86 90/106/86
f 25/116/87 24/117/87 92/110/87 91/107/87
f 24/117/88 4/118/88 17/119/88 92/110/88
f 92/110/89 17/119/89 16/120/89 95/111/89
f 95/111/90 16/120/90 15/121/90 98/114/90
f 98/114/91 15/121/91 2/122/91 44/123/91
f 97/112/92 98/114/92 44/123/92 43/124/92
f 96/113/93 97/112/93 43/124/93 42/125/93
f 35/58/94 96/113/94 42/125/94 6/59/94
f 34/57/95 93/109/95 96/113/95 35/58/95
f 33/56/96 90/106/96 93/109/96 34/57/96
