# Blender 4.4.1
# www.blender.org
mtllib enemy.mtl
o enemy
v 0.900000 0.000000 -0.000000
v -0.900000 0.000000 0.000000
v 0.000000 0.000000 0.900000
v 0.000000 -0.900000 0.000000
v 0.000000 0.900000 0.000000
v 0.309598 0.000000 -0.590115
v -0.000000 0.306806 -0.590115
v -0.309598 0.000000 -0.590115
v -0.000000 -0.306806 -0.590115
vn 0.5761 -0.5775 -0.5784
vn -0.5774 0.5774 0.5774
vn 0.5774 0.5774 0.5774
vn 0.5761 0.5775 -0.5784
vn -0.5774 -0.5774 0.5774
vn 0.5774 -0.5774 0.5774
vn -0.0000 -0.0000 -1.0000
vn -0.5761 0.5775 -0.5784
vn -0.5761 -0.5775 -0.5784
vt 0.576782 0.750583
vt 0.386927 0.749961
vt 0.337854 0.664094
vt 0.432827 0.500217
vt 0.000000 0.249460
vt 0.288801 0.249893
vt 0.144026 0.499785
vt 0.238954 0.664206
vt 0.577601 0.250325
vt 0.433576 0.000000
vt 0.337070 0.762991
vt 0.238170 0.763103
vt 0.189408 0.749800
vt 0.000000 0.750110
vt 0.431190 1.000000
vt 0.337293 0.835505
s 0
usemtl マテリアル
f 4/1/1 9/2/1 6/3/1 1/4/1
f 2/5/2 3/6/2 5/7/2
f 5/7/3 3/6/3 1/4/3
f 7/8/4 5/7/4 1/4/4 6/3/4
f 4/9/5 3/6/5 2/10/5
f 1/4/6 3/6/6 4/9/6
f 7/8/7 6/3/7 9/11/7 8/12/7
f 5/7/8 7/8/8 8/13/8 2/14/8
f 2/15/9 8/16/9 9/2/9 4/1/9
