# Blender 4.4.1
# www.blender.org
mtllib wire.mtl
o 円柱
v 0.500000 0.100000 -0.000000
v -0.500000 0.100000 0.000000
v 0.500000 0.098079 0.019509
v -0.500000 0.098079 0.019509
v 0.500000 0.092388 0.038268
v -0.500000 0.092388 0.038268
v 0.500000 0.083147 0.055557
v -0.500000 0.083147 0.055557
v 0.500000 0.070711 0.070711
v -0.500000 0.070711 0.070711
v 0.500000 0.055557 0.083147
v -0.500000 0.055557 0.083147
v 0.500000 0.038268 0.092388
v -0.500000 0.038268 0.092388
v 0.500000 0.019509 0.098079
v -0.500000 0.019509 0.098079
v 0.500000 0.000000 0.100000
v -0.500000 -0.000000 0.100000
v 0.500000 -0.019509 0.098079
v -0.500000 -0.019509 0.098079
v 0.500000 -0.038268 0.092388
v -0.500000 -0.038268 0.092388
v 0.500000 -0.055557 0.083147
v -0.500000 -0.055557 0.083147
v 0.500000 -0.070711 0.070711
v -0.500000 -0.070711 0.070711
v 0.500000 -0.083147 0.055557
v -0.500000 -0.083147 0.055557
v 0.500000 -0.092388 0.038268
v -0.500000 -0.092388 0.038268
v 0.500000 -0.098079 0.019509
v -0.500000 -0.098079 0.019509
v 0.500000 -0.100000 -0.000000
v -0.500000 -0.100000 0.000000
v 0.500000 -0.098079 -0.019509
v -0.500000 -0.098079 -0.019509
v 0.500000 -0.092388 -0.038268
v -0.500000 -0.092388 -0.038268
v 0.500000 -0.083147 -0.055557
v -0.500000 -0.083147 -0.055557
v 0.500000 -0.070711 -0.070711
v -0.500000 -0.070711 -0.070711
v 0.500000 -0.055557 -0.083147
v -0.500000 -0.055557 -0.083147
v 0.500000 -0.038268 -0.092388
v -0.500000 -0.038268 -0.092388
v 0.500000 -0.019509 -0.098079
v -0.500000 -0.019509 -0.098079
v 0.500000 0.000000 -0.100000
v -0.500000 -0.000000 -0.100000
v 0.500000 0.019509 -0.098079
v -0.500000 0.019509 -0.098079
v 0.500000 0.038268 -0.092388
v -0.500000 0.038268 -0.092388
v 0.500000 0.055557 -0.083147
v -0.500000 0.055557 -0.083147
v 0.500000 0.070711 -0.070711
v -0.500000 0.070711 -0.070711
v 0.500000 0.083147 -0.055557
v -0.500000 0.083147 -0.055557
v 0.500000 0.092388 -0.038268
v -0.500000 0.092388 -0.038268
v 0.500000 0.098079 -0.019509
v -0.500000 0.098079 -0.019509
vn -0.0000 0.9952 0.0980
vn -0.0000 0.9569 0.2903
vn -0.0000 0.8819 0.4714
vn -0.0000 0.7730 0.6344
vn -0.0000 0.6344 0.7730
vn -0.0000 0.4714 0.8819
vn -0.0000 0.2903 0.9569
vn -0.0000 0.0980 0.9952
vn -0.0000 -0.0980 0.9952
vn -0.0000 -0.2903 0.9569
vn -0.0000 -0.4714 0.8819
vn -0.0000 -0.6344 0.7730
vn -0.0000 -0.7730 0.6344
vn -0.0000 -0.8819 0.4714
vn -0.0000 -0.9569 0.2903
vn -0.0000 -0.9952 0.0980
vn -0.0000 -0.9952 -0.0980
vn -0.0000 -0.9569 -0.2903
vn -0.0000 -0.8819 -0.4714
vn -0.0000 -0.7730 -0.6344
vn -0.0000 -0.6344 -0.7730
vn -0.0000 -0.4714 -0.8819
vn -0.0000 -0.2903 -0.9569
vn -0.0000 -0.0980 -0.9952
vn -0.0000 0.0980 -0.9952
vn -0.0000 0.2903 -0.9569
vn -0.0000 0.4714 -0.8819
vn -0.0000 0.6344 -0.7730
vn -0.0000 0.7730 -0.6344
vn -0.0000 0.8819 -0.4714
vn -1.0000 -0.0000 -0.0000
vn -0.0000 0.9569 -0.2903
vn -0.0000 0.9952 -0.0980
vn 1.0000 -0.0000 -0.0000
vt 0.156909 0.999881
vt 0.137310 0.000119
vt 0.156909 0.000119
vt 0.137310 0.999881
vt 0.117712 0.000119
vt 0.117712 0.999881
vt 0.098113 0.000119
vt 0.098113 0.999881
vt 0.078514 0.000119
vt 0.078514 0.999881
vt 0.058915 0.000119
vt 0.058915 0.999881
vt 0.039317 0.000119
vt 0.039317 0.999881
vt 0.019718 0.000119
vt 0.019718 0.999881
vt 0.000119 0.000119
vt 0.627279 0.999881
vt 0.607681 0.000119
vt 0.627279 0.000119
vt 0.607681 0.999881
vt 0.588082 0.000119
vt 0.588082 0.999881
vt 0.568483 0.000119
vt 0.568483 0.999881
vt 0.548884 0.000119
vt 0.548884 0.999881
vt 0.529286 0.000119
vt 0.529285 0.999881
vt 0.509687 0.000119
vt 0.509687 0.999881
vt 0.490088 0.000119
vt 0.490088 0.999881
vt 0.470489 0.000119
vt 0.470489 0.999881
vt 0.450891 0.000119
vt 0.450890 0.999881
vt 0.431292 0.000119
vt 0.431292 0.999881
vt 0.411693 0.000119
vt 0.411693 0.999881
vt 0.392094 0.000119
vt 0.392094 0.999881
vt 0.372495 0.000119
vt 0.372495 0.999881
vt 0.352897 0.000119
vt 0.352897 0.999881
vt 0.333298 0.000119
vt 0.333298 0.999881
vt 0.313699 0.000119
vt 0.313699 0.999881
vt 0.294100 0.000119
vt 0.294100 0.999881
vt 0.274502 0.000119
vt 0.274502 0.999881
vt 0.254903 0.000119
vt 0.254903 0.999881
vt 0.235304 0.000119
vt 0.235304 0.999881
vt 0.215705 0.000119
vt 0.215705 0.999881
vt 0.196107 0.000119
vt 0.804295 0.036190
vt 0.826507 0.109413
vt 0.627517 0.089814
vt 0.196107 0.999881
vt 0.176508 0.000119
vt 0.176508 0.999881
vt 0.774140 0.387013
vt 0.697990 0.394513
vt 0.756034 0.203170
vt 0.000119 0.999881
vt 0.822683 0.128635
vt 0.790436 0.176896
vt 0.815183 0.146742
vt 0.804295 0.163038
vt 0.774141 0.187785
vt 0.717213 0.199109
vt 0.756034 0.195285
vt 0.736811 0.199109
vt 0.697991 0.195285
vt 0.649729 0.163038
vt 0.679884 0.187785
vt 0.663588 0.176896
vt 0.638841 0.146742
vt 0.631341 0.128635
vt 0.627517 0.109413
vt 0.631341 0.070592
vt 0.638841 0.052485
vt 0.649729 0.036190
vt 0.663588 0.022331
vt 0.679884 0.011443
vt 0.697990 0.003943
vt 0.717213 0.000119
vt 0.736811 0.000119
vt 0.756034 0.003943
vt 0.774141 0.011443
vt 0.790436 0.022331
vt 0.815183 0.052485
vt 0.822683 0.070592
vt 0.826507 0.089814
vt 0.679884 0.387013
vt 0.663588 0.376124
vt 0.649729 0.362266
vt 0.638841 0.345970
vt 0.631341 0.327863
vt 0.627517 0.308641
vt 0.627517 0.289042
vt 0.631341 0.269820
vt 0.638841 0.251713
vt 0.649730 0.235417
vt 0.663588 0.221559
vt 0.679884 0.210670
vt 0.697991 0.203170
vt 0.717213 0.199347
vt 0.736812 0.199347
vt 0.774141 0.210670
vt 0.790436 0.221559
vt 0.804295 0.235417
vt 0.815183 0.251713
vt 0.822683 0.269820
vt 0.826507 0.289042
vt 0.826507 0.308641
vt 0.822683 0.327863
vt 0.815183 0.345970
vt 0.804295 0.362266
vt 0.790436 0.376124
vt 0.756034 0.394513
vt 0.736811 0.398336
vt 0.717213 0.398336
s 0
usemtl マテリアル
f 2/1/1 3/2/1 1/3/1
f 4/4/2 5/5/2 3/2/2
f 6/6/3 7/7/3 5/5/3
f 8/8/4 9/9/4 7/7/4
f 10/10/5 11/11/5 9/9/5
f 12/12/6 13/13/6 11/11/6
f 14/14/7 15/15/7 13/13/7
f 16/16/8 17/17/8 15/15/8
f 18/18/9 19/19/9 17/20/9
f 20/21/10 21/22/10 19/19/10
f 22/23/11 23/24/11 21/22/11
f 24/25/12 25/26/12 23/24/12
f 26/27/13 27/28/13 25/26/13
f 28/29/14 29/30/14 27/28/14
f 30/31/15 31/32/15 29/30/15
f 32/33/16 33/34/16 31/32/16
f 34/35/17 35/36/17 33/34/17
f 36/37/18 37/38/18 35/36/18
f 38/39/19 39/40/19 37/38/19
f 40/41/20 41/42/20 39/40/20
f 42/43/21 43/44/21 41/42/21
f 44/45/22 45/46/22 43/44/22
f 46/47/23 47/48/23 45/46/23
f 48/49/24 49/50/24 47/48/24
f 50/51/25 51/52/25 49/50/25
f 52/53/26 53/54/26 51/52/26
f 54/55/27 55/56/27 53/54/27
f 56/57/28 57/58/28 55/56/28
f 58/59/29 59/60/29 57/58/29
f 60/61/30 61/62/30 59/60/30
f 14/63/31 6/64/31 38/65/31
f 62/66/32 63/67/32 61/62/32
f 64/68/33 1/3/33 63/67/33
f 55/69/34 63/70/34 31/71/34
f 2/1/1 4/4/1 3/2/1
f 4/4/2 6/6/2 5/5/2
f 6/6/3 8/8/3 7/7/3
f 8/8/4 10/10/4 9/9/4
f 10/10/5 12/12/5 11/11/5
f 12/12/6 14/14/6 13/13/6
f 14/14/7 16/16/7 15/15/7
f 16/16/8 18/72/8 17/17/8
f 18/18/9 20/21/9 19/19/9
f 20/21/10 22/23/10 21/22/10
f 22/23/11 24/25/11 23/24/11
f 24/25/12 26/27/12 25/26/12
f 26/27/13 28/29/13 27/28/13
f 28/29/14 30/31/14 29/30/14
f 30/31/15 32/33/15 31/32/15
f 32/33/16 34/35/16 33/34/16
f 34/35/17 36/37/17 35/36/17
f 36/37/18 38/39/18 37/38/18
f 38/39/19 40/41/19 39/40/19
f 40/41/20 42/43/20 41/42/20
f 42/43/21 44/45/21 43/44/21
f 44/45/22 46/47/22 45/46/22
f 46/47/23 48/49/23 47/48/23
f 48/49/24 50/51/24 49/50/24
f 50/51/25 52/53/25 51/52/25
f 52/53/26 54/55/26 53/54/26
f 54/55/27 56/57/27 55/56/27
f 56/57/28 58/59/28 57/58/28
f 58/59/29 60/61/29 59/60/29
f 60/61/30 62/66/30 61/62/30
f 6/64/31 4/73/31 62/74/31
f 4/73/31 2/75/31 62/74/31
f 2/75/31 64/76/31 62/74/31
f 62/74/31 60/77/31 54/78/31
f 60/77/31 58/79/31 54/78/31
f 58/79/31 56/80/31 54/78/31
f 54/78/31 52/81/31 46/82/31
f 52/81/31 50/83/31 46/82/31
f 50/83/31 48/84/31 46/82/31
f 46/82/31 44/85/31 42/86/31
f 42/86/31 40/87/31 46/82/31
f 40/87/31 38/65/31 46/82/31
f 38/65/31 36/88/31 34/89/31
f 34/89/31 32/90/31 38/65/31
f 32/90/31 30/91/31 38/65/31
f 30/91/31 28/92/31 26/93/31
f 26/93/31 24/94/31 30/91/31
f 24/94/31 22/95/31 30/91/31
f 22/95/31 20/96/31 14/63/31
f 20/96/31 18/97/31 14/63/31
f 18/97/31 16/98/31 14/63/31
f 14/63/31 12/99/31 6/64/31
f 12/99/31 10/100/31 6/64/31
f 10/100/31 8/101/31 6/64/31
f 6/64/31 62/74/31 38/65/31
f 62/74/31 54/78/31 38/65/31
f 54/78/31 46/82/31 38/65/31
f 38/65/31 30/91/31 22/95/31
f 22/95/31 14/63/31 38/65/31
f 62/66/32 64/68/32 63/67/32
f 64/68/33 2/1/33 1/3/33
f 63/70/34 1/102/34 3/103/34
f 3/103/34 5/104/34 7/105/34
f 7/105/34 9/106/34 11/107/34
f 11/107/34 13/108/34 15/109/34
f 15/109/34 17/110/34 19/111/34
f 19/111/34 21/112/34 23/113/34
f 23/113/34 25/114/34 27/115/34
f 27/115/34 29/116/34 31/71/34
f 31/71/34 33/117/34 35/118/34
f 35/118/34 37/119/34 39/120/34
f 39/120/34 41/121/34 43/122/34
f 43/122/34 45/123/34 47/124/34
f 47/124/34 49/125/34 51/126/34
f 51/126/34 53/127/34 55/69/34
f 55/69/34 57/128/34 59/129/34
f 59/129/34 61/130/34 63/70/34
f 63/70/34 3/103/34 7/105/34
f 7/105/34 11/107/34 15/109/34
f 15/109/34 19/111/34 23/113/34
f 23/113/34 27/115/34 31/71/34
f 31/71/34 35/118/34 39/120/34
f 39/120/34 43/122/34 47/124/34
f 47/124/34 51/126/34 55/69/34
f 55/69/34 59/129/34 63/70/34
f 63/70/34 7/105/34 15/109/34
f 15/109/34 23/113/34 63/70/34
f 23/113/34 31/71/34 63/70/34
f 31/71/34 39/120/34 47/124/34
f 47/124/34 55/69/34 31/71/34
